  0
SECTION
  2
HEADER
  9
$ACADVER
  1
AC1027
  9
$ACADMAINTVER
 70
105
  9
$DWGCODEPAGE
  3
ANSI_1252
  9
$LASTSAVEDBY
  1
ezdxf
  9
$REQUIREDVERSIONS
160
0
  9
$INSBASE
 10
0.0
 20
0.0
 30
0.0
  9
$EXTMIN
 10
1e+20
 20
1e+20
 30
1e+20
  9
$EXTMAX
 10
-1e+20
 20
-1e+20
 30
-1e+20
  9
$LIMMIN
 10
0.0
 20
0.0
  9
$LIMMAX
 10
420.0
 20
297.0
  9
$ORTHOMODE
 70
0
  9
$REGENMODE
 70
1
  9
$FILLMODE
 70
1
  9
$QTEXTMODE
 70
0
  9
$MIRRTEXT
 70
1
  9
$LTSCALE
 40
1.0
  9
$ATTMODE
 70
1
  9
$TEXTSIZE
 40
2.5
  9
$TRACEWID
 40
1.0
  9
$TEXTSTYLE
  7
Standard
  9
$CLAYER
  8
0
  9
$CELTYPE
  6
ByLayer
  9
$CECOLOR
 62
256
  9
$CELTSCALE
 40
1.0
  9
$DISPSILH
 70
0
  9
$DIMSCALE
 40
1.0
  9
$DIMASZ
 40
2.5
  9
$DIMEXO
 40
0.625
  9
$DIMDLI
 40
3.75
  9
$DIMRND
 40
0.0
  9
$DIMDLE
 40
0.0
  9
$DIMEXE
 40
1.25
  9
$DIMTP
 40
0.0
  9
$DIMTM
 40
0.0
  9
$DIMTXT
 40
2.5
  9
$DIMCEN
 40
2.5
  9
$DIMTSZ
 40
0.0
  9
$DIMTOL
 70
0
  9
$DIMLIM
 70
0
  9
$DIMTIH
 70
0
  9
$DIMTOH
 70
0
  9
$DIMSE1
 70
0
  9
$DIMSE2
 70
0
  9
$DIMTAD
 70
1
  9
$DIMZIN
 70
8
  9
$DIMBLK
  1

  9
$DIMASO
 70
1
  9
$DIMSHO
 70
1
  9
$DIMPOST
  1

  9
$DIMAPOST
  1

  9
$DIMALT
 70
0
  9
$DIMALTD
 70
3
  9
$DIMALTF
 40
0.03937007874
  9
$DIMLFAC
 40
1.0
  9
$DIMTOFL
 70
1
  9
$DIMTVP
 40
0.0
  9
$DIMTIX
 70
0
  9
$DIMSOXD
 70
0
  9
$DIMSAH
 70
0
  9
$DIMBLK1
  1

  9
$DIMBLK2
  1

  9
$DIMSTYLE
  2
ISO-25
  9
$DIMCLRD
 70
0
  9
$DIMCLRE
 70
0
  9
$DIMCLRT
 70
0
  9
$DIMTFAC
 40
1.0
  9
$DIMGAP
 40
0.625
  9
$DIMJUST
 70
0
  9
$DIMSD1
 70
0
  9
$DIMSD2
 70
0
  9
$DIMTOLJ
 70
0
  9
$DIMTZIN
 70
8
  9
$DIMALTZ
 70
0
  9
$DIMALTTZ
 70
0
  9
$DIMUPT
 70
0
  9
$DIMDEC
 70
2
  9
$DIMTDEC
 70
2
  9
$DIMALTU
 70
2
  9
$DIMALTTD
 70
3
  9
$DIMTXSTY
  7
Standard
  9
$DIMAUNIT
 70
0
  9
$DIMADEC
 70
0
  9
$DIMALTRND
 40
0.0
  9
$DIMAZIN
 70
0
  9
$DIMDSEP
 70
44
  9
$DIMATFIT
 70
3
  9
$DIMFRAC
 70
0
  9
$DIMLDRBLK
  1

  9
$DIMLUNIT
 70
2
  9
$DIMLWD
 70
-2
  9
$DIMLWE
 70
-2
  9
$DIMTMOVE
 70
0
  9
$DIMFXL
 40
1.0
  9
$DIMFXLON
 70
0
  9
$DIMJOGANG
 40
0.785398163397
  9
$DIMTFILL
 70
0
  9
$DIMTFILLCLR
 70
0
  9
$DIMARCSYM
 70
0
  9
$DIMLTYPE
  6

  9
$DIMLTEX1
  6

  9
$DIMLTEX2
  6

  9
$DIMTXTDIRECTION
 70
0
  9
$LUNITS
 70
2
  9
$LUPREC
 70
4
  9
$SKETCHINC
 40
1.0
  9
$FILLETRAD
 40
10.0
  9
$AUNITS
 70
0
  9
$AUPREC
 70
2
  9
$MENU
  1
.
  9
$ELEVATION
 40
0.0
  9
$PELEVATION
 40
0.0
  9
$THICKNESS
 40
0.0
  9
$LIMCHECK
 70
0
  9
$CHAMFERA
 40
0.0
  9
$CHAMFERB
 40
0.0
  9
$CHAMFERC
 40
0.0
  9
$CHAMFERD
 40
0.0
  9
$SKPOLY
 70
0
  9
$TDCREATE
 40
2460628.5368518517
  9
$TDUCREATE
 40
2458532.153996898
  9
$TDUPDATE
 40
2460628.5368634257
  9
$TDUUPDATE
 40
2458532.1544311
  9
$TDINDWG
 40
0.0
  9
$TDUSRTIMER
 40
0.0
  9
$USRTIMER
 70
1
  9
$ANGBASE
 50
0.0
  9
$ANGDIR
 70
0
  9
$PDMODE
 70
0
  9
$PDSIZE
 40
0.0
  9
$PLINEWID
 40
0.0
  9
$SPLFRAME
 70
0
  9
$SPLINETYPE
 70
6
  9
$SPLINESEGS
 70
8
  9
$HANDSEED
  5
6F
  9
$SURFTAB1
 70
6
  9
$SURFTAB2
 70
6
  9
$SURFTYPE
 70
6
  9
$SURFU
 70
6
  9
$SURFV
 70
6
  9
$UCSBASE
  2

  9
$UCSNAME
  2

  9
$UCSORG
 10
0.0
 20
0.0
 30
0.0
  9
$UCSXDIR
 10
1.0
 20
0.0
 30
0.0
  9
$UCSYDIR
 10
0.0
 20
1.0
 30
0.0
  9
$UCSORTHOREF
  2

  9
$UCSORTHOVIEW
 70
0
  9
$UCSORGTOP
 10
0.0
 20
0.0
 30
0.0
  9
$UCSORGBOTTOM
 10
0.0
 20
0.0
 30
0.0
  9
$UCSORGLEFT
 10
0.0
 20
0.0
 30
0.0
  9
$UCSORGRIGHT
 10
0.0
 20
0.0
 30
0.0
  9
$UCSORGFRONT
 10
0.0
 20
0.0
 30
0.0
  9
$UCSORGBACK
 10
0.0
 20
0.0
 30
0.0
  9
$PUCSBASE
  2

  9
$PUCSNAME
  2

  9
$PUCSORG
 10
0.0
 20
0.0
 30
0.0
  9
$PUCSXDIR
 10
1.0
 20
0.0
 30
0.0
  9
$PUCSYDIR
 10
0.0
 20
1.0
 30
0.0
  9
$PUCSORTHOREF
  2

  9
$PUCSORTHOVIEW
 70
0
  9
$PUCSORGTOP
 10
0.0
 20
0.0
 30
0.0
  9
$PUCSORGBOTTOM
 10
0.0
 20
0.0
 30
0.0
  9
$PUCSORGLEFT
 10
0.0
 20
0.0
 30
0.0
  9
$PUCSORGRIGHT
 10
0.0
 20
0.0
 30
0.0
  9
$PUCSORGFRONT
 10
0.0
 20
0.0
 30
0.0
  9
$PUCSORGBACK
 10
0.0
 20
0.0
 30
0.0
  9
$USERI1
 70
0
  9
$USERI2
 70
0
  9
$USERI3
 70
0
  9
$USERI4
 70
0
  9
$USERI5
 70
0
  9
$USERR1
 40
0.0
  9
$USERR2
 40
0.0
  9
$USERR3
 40
0.0
  9
$USERR4
 40
0.0
  9
$USERR5
 40
0.0
  9
$WORLDVIEW
 70
1
  9
$SHADEDGE
 70
3
  9
$SHADEDIF
 70
70
  9
$TILEMODE
 70
1
  9
$MAXACTVP
 70
64
  9
$PINSBASE
 10
0.0
 20
0.0
 30
0.0
  9
$PLIMCHECK
 70
0
  9
$PEXTMIN
 10
1e+20
 20
1e+20
 30
1e+20
  9
$PEXTMAX
 10
-1e+20
 20
-1e+20
 30
-1e+20
  9
$PLIMMIN
 10
0.0
 20
0.0
  9
$PLIMMAX
 10
420.0
 20
297.0
  9
$UNITMODE
 70
0
  9
$VISRETAIN
 70
1
  9
$PLINEGEN
 70
0
  9
$PSLTSCALE
 70
1
  9
$TREEDEPTH
 70
3020
  9
$CMLSTYLE
  2
Standard
  9
$CMLJUST
 70
0
  9
$CMLSCALE
 40
20.0
  9
$PROXYGRAPHICS
 70
1
  9
$MEASUREMENT
 70
1
  9
$CELWEIGHT
370
-1
  9
$ENDCAPS
280
0
  9
$JOINSTYLE
280
0
  9
$LWDISPLAY
290
0
  9
$INSUNITS
 70
4
  9
$HYPERLINKBASE
  1

  9
$STYLESHEET
  1

  9
$XEDIT
290
1
  9
$CEPSNTYPE
380
0
  9
$PSTYLEMODE
290
1
  9
$FINGERPRINTGUID
  2
{09BA099F-106E-41A9-BC44-B24EBB3D0E14}
  9
$VERSIONGUID
  2
{CD0C6BF0-DBE3-44AF-ABF3-05634BFE58AB}
  9
$EXTNAMES
290
1
  9
$PSVPSCALE
 40
0.0
  9
$OLESTARTUP
290
0
  9
$SORTENTS
280
127
  9
$INDEXCTL
280
0
  9
$HIDETEXT
280
1
  9
$XCLIPFRAME
280
1
  9
$HALOGAP
280
0
  9
$OBSCOLOR
 70
257
  9
$OBSLTYPE
280
0
  9
$INTERSECTIONDISPLAY
280
0
  9
$INTERSECTIONCOLOR
 70
257
  9
$DIMASSOC
280
2
  9
$PROJECTNAME
  1

  9
$CAMERADISPLAY
290
0
  9
$LENSLENGTH
 40
50.0
  9
$CAMERAHEIGHT
 40
0.0
  9
$STEPSPERSEC
 40
24.0
  9
$STEPSIZE
 40
100.0
  9
$3DDWFPREC
 40
2.0
  9
$PSOLWIDTH
 40
0.005
  9
$PSOLHEIGHT
 40
0.08
  9
$LOFTANG1
 40
1.570796326795
  9
$LOFTANG2
 40
1.570796326795
  9
$LOFTMAG1
 40
0.0
  9
$LOFTMAG2
 40
0.0
  9
$LOFTPARAM
 70
7
  9
$LOFTNORMALS
280
1
  9
$LATITUDE
 40
37.795
  9
$LONGITUDE
 40
-122.394
  9
$NORTHDIRECTION
 40
0.0
  9
$TIMEZONE
 70
-8000
  9
$LIGHTGLYPHDISPLAY
280
1
  9
$TILEMODELIGHTSYNCH
280
1
  9
$CMATERIAL
347
20
  9
$SOLIDHIST
280
0
  9
$SHOWHIST
280
1
  9
$DWFFRAME
280
2
  9
$DGNFRAME
280
2
  9
$REALWORLDSCALE
290
1
  9
$INTERFERECOLOR
 62
256
  9
$CSHADOW
280
0
  9
$SHADOWPLANELOCATION
 40
0.0
  0
ENDSEC
  0
SECTION
  2
CLASSES
  0
CLASS
  1
ACDBDICTIONARYWDFLT
  2
AcDbDictionaryWithDefault
  3
ObjectDBX Classes
 90
0
 91
0
280
0
281
0
  0
CLASS
  1
SUN
  2
AcDbSun
  3
SCENEOE
 90
1153
 91
0
280
0
281
0
  0
CLASS
  1
VISUALSTYLE
  2
AcDbVisualStyle
  3
ObjectDBX Classes
 90
4095
 91
0
280
0
281
0
  0
CLASS
  1
MATERIAL
  2
AcDbMaterial
  3
ObjectDBX Classes
 90
1153
 91
0
280
0
281
0
  0
CLASS
  1
SCALE
  2
AcDbScale
  3
ObjectDBX Classes
 90
1153
 91
0
280
0
281
0
  0
CLASS
  1
TABLESTYLE
  2
AcDbTableStyle
  3
ObjectDBX Classes
 90
4095
 91
0
280
0
281
0
  0
CLASS
  1
MLEADERSTYLE
  2
AcDbMLeaderStyle
  3
ACDB_MLEADERSTYLE_CLASS
 90
4095
 91
0
280
0
281
0
  0
CLASS
  1
DICTIONARYVAR
  2
AcDbDictionaryVar
  3
ObjectDBX Classes
 90
0
 91
0
280
0
281
0
  0
CLASS
  1
CELLSTYLEMAP
  2
AcDbCellStyleMap
  3
ObjectDBX Classes
 90
1152
 91
0
280
0
281
0
  0
CLASS
  1
MENTALRAYRENDERSETTINGS
  2
AcDbMentalRayRenderSettings
  3
SCENEOE
 90
1024
 91
0
280
0
281
0
  0
CLASS
  1
ACDBDETAILVIEWSTYLE
  2
AcDbDetailViewStyle
  3
ObjectDBX Classes
 90
1025
 91
0
280
0
281
0
  0
CLASS
  1
ACDBSECTIONVIEWSTYLE
  2
AcDbSectionViewStyle
  3
ObjectDBX Classes
 90
1025
 91
0
280
0
281
0
  0
CLASS
  1
RASTERVARIABLES
  2
AcDbRasterVariables
  3
ISM
 90
0
 91
0
280
0
281
0
  0
CLASS
  1
LAYOUT
  2
AcDbLayout
  3
ObjectDBX Classes
 90
0
 91
0
280
0
281
0
  0
CLASS
  1
ACDBPLACEHOLDER
  2
AcDbPlaceHolder
  3
ObjectDBX Classes
 90
0
 91
0
280
0
281
0
  0
ENDSEC
  0
SECTION
  2
TABLES
  0
TABLE
  2
VPORT
  5
8
330
0
100
AcDbSymbolTable
 70
1
  0
VPORT
  5
6B
330
8
100
AcDbSymbolTableRecord
100
AcDbViewportTableRecord
  2
*Active
 70
0
 10
0.0
 20
0.0
 11
1.0
 21
1.0
 12
2.6645352591003757e-14
 22
0.0008470492219156966
 13
0.0
 23
0.0
 14
0.5
 24
0.5
 15
0.5
 25
0.5
 16
0.0
 26
0.0
 36
1.0
 17
0.0
 27
0.0
 37
0.0
 40
20.005684326986785
 41
1.34
 42
50.0
 43
0.0
 44
0.0
 50
0.0
 51
0.0
 71
0
 72
1000
 73
1
 74
3
 75
0
 76
0
 77
0
 78
0
281
0
 65
1
110
0.0
120
0.0
130
0.0
111
1.0
121
0.0
131
0.0
112
0.0
122
1.0
132
0.0
 79
0
146
0.0
  0
ENDTAB
  0
TABLE
  2
LTYPE
  5
2
330
0
100
AcDbSymbolTable
 70
3
  0
LTYPE
  5
24
330
2
100
AcDbSymbolTableRecord
100
AcDbLinetypeTableRecord
  2
ByBlock
 70
0
  3

 72
65
 73
0
 40
0.0
  0
LTYPE
  5
25
330
2
100
AcDbSymbolTableRecord
100
AcDbLinetypeTableRecord
  2
ByLayer
 70
0
  3

 72
65
 73
0
 40
0.0
  0
LTYPE
  5
26
330
2
100
AcDbSymbolTableRecord
100
AcDbLinetypeTableRecord
  2
Continuous
 70
0
  3

 72
65
 73
0
 40
0.0
  0
ENDTAB
  0
TABLE
  2
LAYER
  5
1
330
0
100
AcDbSymbolTable
 70
2
  0
LAYER
  5
27
330
1
100
AcDbSymbolTableRecord
100
AcDbLayerTableRecord
  2
0
 70
0
 62
7
  6
Continuous
370
-3
390
13
347
21
  0
LAYER
  5
28
330
1
100
AcDbSymbolTableRecord
100
AcDbLayerTableRecord
  2
Defpoints
 70
0
 62
7
  6
Continuous
290
0
370
-3
390
13
347
21
  0
ENDTAB
  0
TABLE
  2
STYLE
  5
5
330
0
100
AcDbSymbolTable
 70
1
  0
STYLE
  5
29
330
5
100
AcDbSymbolTableRecord
100
AcDbTextStyleTableRecord
  2
Standard
 70
0
 40
0.0
 41
1.0
 50
0.0
 71
0
 42
2.5
  3
txt
  4

  0
ENDTAB
  0
TABLE
  2
VIEW
  5
7
330
0
100
AcDbSymbolTable
 70
0
  0
ENDTAB
  0
TABLE
  2
UCS
  5
6
330
0
100
AcDbSymbolTable
 70
0
  0
ENDTAB
  0
TABLE
  2
APPID
  5
3
330
0
100
AcDbSymbolTable
 70
3
  0
APPID
  5
2A
330
3
100
AcDbSymbolTableRecord
100
AcDbRegAppTableRecord
  2
ACAD
 70
0
  0
APPID
  5
6C
330
3
100
AcDbSymbolTableRecord
100
AcDbRegAppTableRecord
  2
HATCHBACKGROUNDCOLOR
 70
0
  0
APPID
  5
6D
330
3
100
AcDbSymbolTableRecord
100
AcDbRegAppTableRecord
  2
EZDXF
 70
0
  0
ENDTAB
  0
TABLE
  2
DIMSTYLE
  5
4
330
0
100
AcDbSymbolTable
 70
1
100
AcDbDimStyleTable
  0
DIMSTYLE
105
2B
330
4
100
AcDbSymbolTableRecord
100
AcDbDimStyleTableRecord
  2
Standard
 70
0
 40
1.0
 41
2.5
 42
0.625
 43
3.75
 44
1.25
 45
0.0
 46
0.0
 47
0.0
 48
0.0
 49
2.5
140
2.5
141
2.5
142
0.0
143
0.03937007874
144
1.0
145
0.0
146
1.0
147
0.625
148
0.0
 69
0
 70
0
 71
0
 72
0
 73
0
 74
0
 75
0
 76
0
 77
1
 78
8
 79
3
170
0
171
3
172
1
173
0
174
0
175
0
176
0
177
0
178
0
179
2
271
2
272
2
273
2
274
3
275
0
276
0
277
2
278
44
279
0
280
0
281
0
282
0
283
0
284
8
285
0
286
0
288
0
289
3
290
0
371
-2
372
-2
  0
ENDTAB
  0
TABLE
  2
BLOCK_RECORD
  5
9
330
0
100
AcDbSymbolTable
 70
2
  0
BLOCK_RECORD
  5
17
330
9
100
AcDbSymbolTableRecord
100
AcDbBlockTableRecord
  2
*Model_Space
340
1A
 70
0
280
1
281
0
  0
BLOCK_RECORD
  5
1B
330
9
100
AcDbSymbolTableRecord
100
AcDbBlockTableRecord
  2
*Paper_Space
340
1E
 70
0
280
1
281
0
  0
ENDTAB
  0
ENDSEC
  0
SECTION
  2
BLOCKS
  0
BLOCK
  5
18
330
17
100
AcDbEntity
  8
0
100
AcDbBlockBegin
  2
*Model_Space
 70
0
 10
0.0
 20
0.0
 30
0.0
  3
*Model_Space
  1

  0
ENDBLK
  5
19
330
17
100
AcDbEntity
  8
0
100
AcDbBlockEnd
  0
BLOCK
  5
1C
330
1B
100
AcDbEntity
  8
0
100
AcDbBlockBegin
  2
*Paper_Space
 70
0
 10
0.0
 20
0.0
 30
0.0
  3
*Paper_Space
  1

  0
ENDBLK
  5
1D
330
1B
100
AcDbEntity
  8
0
100
AcDbBlockEnd
  0
ENDSEC
  0
SECTION
  2
ENTITIES
  0
SPLINE
  5
2F
330
17
100
AcDbEntity
  8
0
100
AcDbSpline
 70
0
 71
9
 72
44
 73
34
 74
0
 40
0.0
 40
0.0
 40
0.0
 40
0.0
 40
0.0
 40
0.0
 40
0.0
 40
0.0
 40
0.0
 40
0.0
 40
25.0
 40
25.0
 40
25.0
 40
25.0
 40
25.0
 40
25.0
 40
25.0
 40
25.0
 40
50.0
 40
50.0
 40
50.0
 40
50.0
 40
50.0
 40
50.0
 40
50.0
 40
50.0
 40
75.0
 40
75.0
 40
75.0
 40
75.0
 40
75.0
 40
75.0
 40
75.0
 40
75.0
 40
100.0
 40
100.0
 40
100.0
 40
100.0
 40
100.0
 40
100.0
 40
100.0
 40
100.0
 40
100.0
 40
100.0
 10
10.000000000000004
 20
-1.7763568394002505e-15
 30
0.0
 10
10.000000000000059
 20
4.363323129978619
 30
2.7777777777778025
 10
7.858070303647792
 20
8.726938109529149
 30
5.555555555555493
 10
3.574909241544658
 20
11.886712049267386
 30
8.33333333333343
 10
-2.0655134153111776
 20
12.652166277810512
 30
11.111111111111
 10
-7.485943738771943
 20
10.407156399154786
 30
13.888888888889019
 10
-10.933007689346297
 20
5.877217925558734
 30
16.66666666666651
 10
-11.727372046713423
 20
0.6144103515345204
 30
19.444444444444574
 10
-10.156403629995445
 20
-3.985731993735519
 30
22.22222222222217
 10
-3.9857319937354694
 20
-10.156403629995486
 30
27.77777777777786
 10
0.614410351532921
 20
-11.72737204671311
 30
30.555555555554978
 10
5.877217925564972
 20
-10.93300768934686
 30
33.33333333333457
 10
10.40715639914306
 20
-7.485943738771148
 30
36.1111111111093
 10
12.652166277823406
 20
-2.065513415312363
 30
38.888888888890975
 10
11.88671204925988
 20
3.5749092415465262
 30
41.666666666664895
 10
8.726938109530021
 20
7.858070303646841
 30
44.44444444444537
 10
4.363323129979934
 20
9.999999999999995
 30
47.22222222222212
 10
-4.363323129979807
 20
10.000000000000027
 30
52.77777777777754
 10
-8.726938109526671
 20
7.858070303647079
 30
55.55555555555693
 10
-11.8867120492708
 20
3.5749092415467363
 30
58.33333333333028
 10
-12.652166277807021
 20
-2.0655134153143577
 30
61.11111111111564
 10
-10.407156399157017
 20
-7.4859437387688015
 30
63.88888888888424
 10
-5.87721792555843
 20
-10.933007689347733
 30
66.66666666666991
 10
-0.6144103515343468
 20
-11.727372046713228
 30
69.44444444444296
 10
3.9857319937355693
 20
-10.156403629995355
 30
72.2222222222226
 10
10.156403629995497
 20
-3.9857319937354974
 30
77.7777777777774
 10
11.72737204671191
 20
0.6144103515346379
 30
80.5555555555562
 10
10.933007689352074
 20
5.877217925557914
 30
83.33333333333331
 10
7.485943738760898
 20
10.407156399158303
 30
86.11111111110989
 10
2.065513415322861
 20
12.652166277803962
 30
88.88888888889089
 10
-3.5749092415524317
 20
11.886712049276067
 30
91.6666666666649
 10
-7.858070303645582
 20
8.72693810952115
 30
94.44444444444541
 10
-9.999999999999023
 20
4.363323129982351
 30
97.22222222222196
 10
-9.999999999999998
 20
2.369660023759934e-12
 30
100.0
  0
SPLINE
  5
30
330
17
100
AcDbEntity
  8
0
100
AcDbSpline
 70
0
 71
1
 72
4
 73
2
 74
0
 40
0.0
 40
0.0
 40
6.640655130520275
 40
6.640655130520275
 10
10.000000000000004
 20
-1.7763568394002505e-15
 30
0.0
 10
4.045084971874738
 20
2.9389262614623677
 30
5.329070518200751e-15
  0
SPLINE
  5
31
330
17
100
AcDbEntity
  8
0
100
AcDbSpline
 70
0
 71
9
 72
44
 73
34
 74
0
 40
0.0
 40
0.0
 40
0.0
 40
0.0
 40
0.0
 40
0.0
 40
0.0
 40
0.0
 40
0.0
 40
0.0
 40
25.0
 40
25.0
 40
25.0
 40
25.0
 40
25.0
 40
25.0
 40
25.0
 40
25.0
 40
50.0
 40
50.0
 40
50.0
 40
50.0
 40
50.0
 40
50.0
 40
50.0
 40
50.0
 40
75.0
 40
75.0
 40
75.0
 40
75.0
 40
75.0
 40
75.0
 40
75.0
 40
75.0
 40
100.0
 40
100.0
 40
100.0
 40
100.0
 40
100.0
 40
100.0
 40
100.0
 40
100.0
 40
100.0
 40
100.0
 10
4.045084971874738
 20
2.9389262614623677
 30
5.329070518200751e-15
 10
2.7627364784807042
 20
4.703927543513351
 30
2.7777777777778203
 10
0.6138734500969405
 20
5.839549537714659
 30
5.555555555555465
 10
-2.047335855524556
 20
5.858915492781119
 30
8.33333333333343
 10
-4.55389610137255
 20
4.510869605237439
 30
11.111111111111043
 10
-6.0867143766629574
 20
2.0097195304461364
 30
13.888888888888973
 10
-6.14976552073267
 20
-0.8357457507877842
 30
16.666666666666544
 10
-4.924392314318391
 20
-3.198053960646955
 30
19.44444444444452
 10
-2.936974326444836
 20
-4.597154593998514
 30
22.22222222222222
 10
1.3726296760425423
 20
-5.279728811952872
 30
27.777777777777793
 10
3.695122376557663
 20
-4.563250970830853
 30
30.555555555555234
 10
5.590514932212293
 20
-2.6952234995788045
 30
33.33333333333423
 10
6.4098468595834595
 20
0.030458673058541864
 30
36.111111111109516
 10
5.724947929174086
 20
2.8828606462796964
 30
38.88888888889091
 10
3.7576365623143224
 20
4.939498185280809
 30
41.66666666666495
 10
1.220691701753311
 20
5.743438968547079
 30
44.444444444445296
 10
-1.1739249794107824
 20
5.3274334652691735
 30
47.22222222222206
 10
-4.703927543513876
 20
2.7627364784803357
 30
52.77777777777781
 10
-5.839549537713309
 20
0.6138734500974464
 30
55.555555555555436
 10
-5.858915492783391
 20
-2.0473358555248575
 30
58.333333333333485
 10
-4.5108696052347135
 20
-4.553896101372625
 30
61.111111111110866
 10
-2.0097195304483333
 20
-6.086714376662502
 30
63.88888888888935
 10
0.83574575078859
 20
-6.14976552073307
 30
66.66666666666619
 10
3.1980539606468397
 20
-4.924392314318283
 30
69.44444444444458
 10
4.597154593998549
 20
-2.936974326444792
 30
72.22222222222238
 10
5.279728811952843
 20
1.3726296760425616
 30
77.77777777777716
 10
4.5632509708300075
 20
3.6951223765578414
 30
80.5555555555584
 10
2.695223499582692
 20
5.590514932211401
 30
83.33333333332754
 10
-0.030458673066725533
 20
6.409846859585891
 30
86.11111111111892
 10
-2.8828606462702533
 20
5.7249479291701215
 30
88.8888888888818
 10
-4.939498185287498
 20
3.757636562318506
 30
91.66666666667102
 10
-5.743438968544242
 20
1.2206917017503975
 30
94.44444444444265
 10
-5.327433465269402
 20
-1.17392497940959
 30
97.22222222222273
 10
-4.045084971875436
 20
-2.938926261461405
 30
100.0
  0
SPLINE
  5
32
330
17
100
AcDbEntity
  8
0
100
AcDbSpline
 70
0
 71
1
 72
4
 73
2
 74
0
 40
0.0
 40
0.0
 40
6.640655130520275
 40
6.640655130520275
 10
-9.999999999999998
 20
2.369660023759934e-12
 30
100.0
 10
-4.045084971875436
 20
-2.938926261461405
 30
100.0
  0
SPLINE
  5
33
330
17
100
AcDbEntity
  8
0
100
AcDbSpline
 70
0
 71
9
 72
44
 73
34
 74
0
 40
0.0
 40
0.0
 40
0.0
 40
0.0
 40
0.0
 40
0.0
 40
0.0
 40
0.0
 40
0.0
 40
0.0
 40
25.0
 40
25.0
 40
25.0
 40
25.0
 40
25.0
 40
25.0
 40
25.0
 40
25.0
 40
50.0
 40
50.0
 40
50.0
 40
50.0
 40
50.0
 40
50.0
 40
50.0
 40
50.0
 40
75.0
 40
75.0
 40
75.0
 40
75.0
 40
75.0
 40
75.0
 40
75.0
 40
75.0
 40
100.0
 40
100.0
 40
100.0
 40
100.0
 40
100.0
 40
100.0
 40
100.0
 40
100.0
 40
100.0
 40
100.0
 10
4.045084971874738
 20
2.9389262614623677
 30
5.329070518200751e-15
 10
2.7627364784807042
 20
4.703927543513351
 30
2.7777777777778203
 10
0.6138734500969405
 20
5.839549537714659
 30
5.555555555555465
 10
-2.047335855524556
 20
5.858915492781119
 30
8.33333333333343
 10
-4.55389610137255
 20
4.510869605237439
 30
11.111111111111043
 10
-6.0867143766629574
 20
2.0097195304461364
 30
13.888888888888973
 10
-6.14976552073267
 20
-0.8357457507877842
 30
16.666666666666544
 10
-4.924392314318391
 20
-3.198053960646955
 30
19.44444444444452
 10
-2.936974326444836
 20
-4.597154593998514
 30
22.22222222222222
 10
1.3726296760425423
 20
-5.279728811952872
 30
27.777777777777793
 10
3.695122376557663
 20
-4.563250970830853
 30
30.555555555555234
 10
5.590514932212293
 20
-2.6952234995788045
 30
33.33333333333423
 10
6.4098468595834595
 20
0.030458673058541864
 30
36.111111111109516
 10
5.724947929174086
 20
2.8828606462796964
 30
38.88888888889091
 10
3.7576365623143224
 20
4.939498185280809
 30
41.66666666666495
 10
1.220691701753311
 20
5.743438968547079
 30
44.444444444445296
 10
-1.1739249794107824
 20
5.3274334652691735
 30
47.22222222222206
 10
-4.703927543513876
 20
2.7627364784803357
 30
52.77777777777781
 10
-5.839549537713309
 20
0.6138734500974464
 30
55.555555555555436
 10
-5.858915492783391
 20
-2.0473358555248575
 30
58.333333333333485
 10
-4.5108696052347135
 20
-4.553896101372625
 30
61.111111111110866
 10
-2.0097195304483333
 20
-6.086714376662502
 30
63.88888888888935
 10
0.83574575078859
 20
-6.14976552073307
 30
66.66666666666619
 10
3.1980539606468397
 20
-4.924392314318283
 30
69.44444444444458
 10
4.597154593998549
 20
-2.936974326444792
 30
72.22222222222238
 10
5.279728811952843
 20
1.3726296760425616
 30
77.77777777777716
 10
4.5632509708300075
 20
3.6951223765578414
 30
80.5555555555584
 10
2.695223499582692
 20
5.590514932211401
 30
83.33333333332754
 10
-0.030458673066725533
 20
6.409846859585891
 30
86.11111111111892
 10
-2.8828606462702533
 20
5.7249479291701215
 30
88.8888888888818
 10
-4.939498185287498
 20
3.757636562318506
 30
91.66666666667102
 10
-5.743438968544242
 20
1.2206917017503975
 30
94.44444444444265
 10
-5.327433465269402
 20
-1.17392497940959
 30
97.22222222222273
 10
-4.045084971875436
 20
-2.938926261461405
 30
100.0
  0
SPLINE
  5
34
330
17
100
AcDbEntity
  8
0
100
AcDbSpline
 70
0
 71
1
 72
4
 73
2
 74
0
 40
0.0
 40
0.0
 40
6.640655130520274
 40
6.640655130520274
 10
4.045084971874738
 20
2.9389262614623677
 30
5.329070518200751e-15
 10
3.0901699437494745
 20
9.51056516295153
 30
1.7763568394002505e-15
  0
SPLINE
  5
35
330
17
100
AcDbEntity
  8
0
100
AcDbSpline
 70
0
 71
9
 72
44
 73
34
 74
0
 40
0.0
 40
0.0
 40
0.0
 40
0.0
 40
0.0
 40
0.0
 40
0.0
 40
0.0
 40
0.0
 40
0.0
 40
25.0
 40
25.0
 40
25.0
 40
25.0
 40
25.0
 40
25.0
 40
25.0
 40
25.0
 40
50.0
 40
50.0
 40
50.0
 40
50.0
 40
50.0
 40
50.0
 40
50.0
 40
50.0
 40
75.0
 40
75.0
 40
75.0
 40
75.0
 40
75.0
 40
75.0
 40
75.0
 40
75.0
 40
100.0
 40
100.0
 40
100.0
 40
100.0
 40
100.0
 40
100.0
 40
100.0
 40
100.0
 40
100.0
 40
100.0
 10
3.0901699437494745
 20
9.51056516295153
 30
1.7763568394002505e-15
 10
-1.0595969517180235
 20
10.858906162064283
 30
2.777777777777882
 10
-5.871534089552044
 20
10.170241152492547
 30
5.555555555555244
 10
-10.200227242794199
 20
7.073136759799796
 30
8.33333333333392
 10
-12.671203931202614
 20
1.9453144023745148
 30
11.111111111110196
 10
-12.211077743733611
 20
-3.903567382921359
 30
13.888888888890088
 10
-8.968051581429775
 20
-8.58174798701496
 30
16.666666666665567
 10
-4.208296230298028
 20
-10.963530363900452
 30
19.444444444444997
 10
0.6521550614481847
 20
-10.89097277551908
 30
22.222222222222157
 10
8.427654933342795
 20
-6.9291577082483125
 30
27.77777777777776
 10
11.343256844187575
 20
-3.039618293286922
 30
30.55555555555537
 10
12.214068424303173
 20
2.2110812301537712
 30
33.333333333334224
 10
10.33554376383031
 20
7.584510075294824
 30
36.111111111109054
 10
5.874154388632852
 20
11.394646436330621
 30
38.88888888889156
 10
0.2732553011263326
 20
12.409642660760243
 30
41.666666666664575
 10
-4.776696783085722
 20
10.728088623192265
 30
44.44444444444532
 10
-8.16222416383841
 20
7.239936839218413
 30
47.22222222222216
 10
-10.858906162064612
 20
-1.059596951719251
 30
52.7777777777776
 10
-10.17024115249116
 20
-5.8715340895497485
 30
55.55555555555657
 10
-7.073136759802806
 20
-10.20022724279705
 30
58.3333333333305
 10
-1.9453144023703357
 20
-12.671203931199978
 30
61.11111111111541
 10
3.9035673829175175
 20
-12.211077743735041
 30
63.88888888888498
 10
8.581747987016605
 20
-8.968051581429721
 30
66.66666666666899
 10
10.963530363900167
 20
-4.208296230297923
 30
69.44444444444333
 10
10.890972775519112
 20
0.6521550614483046
 30
72.22222222222256
 10
6.92915770824816
 20
8.427654933342746
 30
77.77777777777725
 10
3.0396182932857925
 20
11.343256844187193
 30
80.55555555555792
 10
-2.2110812301474576
 20
12.214068424305532
 30
83.33333333332784
 10
-7.584510075309475
 20
10.335543763825726
 30
86.11111111111937
 10
-11.394646436312074
 20
5.87415438863652
 30
88.88888888888143
 10
-12.409642660775086
 20
0.27325530112585533
 30
91.66666666667042
 10
-10.728088623184611
 20
-4.77669678308733
 30
94.44444444444338
 10
-7.239936839220124
 20
-8.162224163836713
 30
97.22222222222251
 10
-3.0901699437517314
 20
-9.510565162950801
 30
99.99999999999999
  0
SPLINE
  5
36
330
17
100
AcDbEntity
  8
0
100
AcDbSpline
 70
0
 71
1
 72
4
 73
2
 74
0
 40
0.0
 40
0.0
 40
6.640655130520274
 40
6.640655130520274
 10
-4.045084971875436
 20
-2.938926261461405
 30
100.0
 10
-3.0901699437517314
 20
-9.510565162950801
 30
99.99999999999999
  0
SPLINE
  5
37
330
17
100
AcDbEntity
  8
0
100
AcDbSpline
 70
0
 71
9
 72
44
 73
34
 74
0
 40
0.0
 40
0.0
 40
0.0
 40
0.0
 40
0.0
 40
0.0
 40
0.0
 40
0.0
 40
0.0
 40
0.0
 40
25.0
 40
25.0
 40
25.0
 40
25.0
 40
25.0
 40
25.0
 40
25.0
 40
25.0
 40
50.0
 40
50.0
 40
50.0
 40
50.0
 40
50.0
 40
50.0
 40
50.0
 40
50.0
 40
75.0
 40
75.0
 40
75.0
 40
75.0
 40
75.0
 40
75.0
 40
75.0
 40
75.0
 40
100.0
 40
100.0
 40
100.0
 40
100.0
 40
100.0
 40
100.0
 40
100.0
 40
100.0
 40
100.0
 40
100.0
 10
3.0901699437494745
 20
9.51056516295153
 30
1.7763568394002505e-15
 10
-1.0595969517180235
 20
10.858906162064283
 30
2.777777777777882
 10
-5.871534089552044
 20
10.170241152492547
 30
5.555555555555244
 10
-10.200227242794199
 20
7.073136759799796
 30
8.33333333333392
 10
-12.671203931202614
 20
1.9453144023745148
 30
11.111111111110196
 10
-12.211077743733611
 20
-3.903567382921359
 30
13.888888888890088
 10
-8.968051581429775
 20
-8.58174798701496
 30
16.666666666665567
 10
-4.208296230298028
 20
-10.963530363900452
 30
19.444444444444997
 10
0.6521550614481847
 20
-10.89097277551908
 30
22.222222222222157
 10
8.427654933342795
 20
-6.9291577082483125
 30
27.77777777777776
 10
11.343256844187575
 20
-3.039618293286922
 30
30.55555555555537
 10
12.214068424303173
 20
2.2110812301537712
 30
33.333333333334224
 10
10.33554376383031
 20
7.584510075294824
 30
36.111111111109054
 10
5.874154388632852
 20
11.394646436330621
 30
38.88888888889156
 10
0.2732553011263326
 20
12.409642660760243
 30
41.666666666664575
 10
-4.776696783085722
 20
10.728088623192265
 30
44.44444444444532
 10
-8.16222416383841
 20
7.239936839218413
 30
47.22222222222216
 10
-10.858906162064612
 20
-1.059596951719251
 30
52.7777777777776
 10
-10.17024115249116
 20
-5.8715340895497485
 30
55.55555555555657
 10
-7.073136759802806
 20
-10.20022724279705
 30
58.3333333333305
 10
-1.9453144023703357
 20
-12.671203931199978
 30
61.11111111111541
 10
3.9035673829175175
 20
-12.211077743735041
 30
63.88888888888498
 10
8.581747987016605
 20
-8.968051581429721
 30
66.66666666666899
 10
10.963530363900167
 20
-4.208296230297923
 30
69.44444444444333
 10
10.890972775519112
 20
0.6521550614483046
 30
72.22222222222256
 10
6.92915770824816
 20
8.427654933342746
 30
77.77777777777725
 10
3.0396182932857925
 20
11.343256844187193
 30
80.55555555555792
 10
-2.2110812301474576
 20
12.214068424305532
 30
83.33333333332784
 10
-7.584510075309475
 20
10.335543763825726
 30
86.11111111111937
 10
-11.394646436312074
 20
5.87415438863652
 30
88.88888888888143
 10
-12.409642660775086
 20
0.27325530112585533
 30
91.66666666667042
 10
-10.728088623184611
 20
-4.77669678308733
 30
94.44444444444338
 10
-7.239936839220124
 20
-8.162224163836713
 30
97.22222222222251
 10
-3.0901699437517314
 20
-9.510565162950801
 30
99.99999999999999
  0
SPLINE
  5
38
330
17
100
AcDbEntity
  8
0
100
AcDbSpline
 70
0
 71
1
 72
4
 73
2
 74
0
 40
0.0
 40
0.0
 40
6.640655130520274
 40
6.640655130520274
 10
3.0901699437494745
 20
9.510565162951531
 30
1.7763568394002505e-15
 10
-1.5450849718747395
 20
4.75528258147577
 30
0.0
  0
SPLINE
  5
39
330
17
100
AcDbEntity
  8
0
100
AcDbSpline
 70
0
 71
9
 72
44
 73
34
 74
0
 40
0.0
 40
0.0
 40
0.0
 40
0.0
 40
0.0
 40
0.0
 40
0.0
 40
0.0
 40
0.0
 40
0.0
 40
25.0
 40
25.0
 40
25.0
 40
25.0
 40
25.0
 40
25.0
 40
25.0
 40
25.0
 40
50.0
 40
50.0
 40
50.0
 40
50.0
 40
50.0
 40
50.0
 40
50.0
 40
50.0
 40
75.0
 40
75.0
 40
75.0
 40
75.0
 40
75.0
 40
75.0
 40
75.0
 40
75.0
 40
100.0
 40
100.0
 40
100.0
 40
100.0
 40
100.0
 40
100.0
 40
100.0
 40
100.0
 40
100.0
 40
100.0
 10
-1.5450849718747395
 20
4.75528258147577
 30
0.0
 10
-3.6199684196085107
 20
4.081112081919474
 30
2.7777777777777777
 10
-5.364044311596258
 20
2.3883483915433135
 30
5.555555555555612
 10
-6.204821330382572
 20
-0.13662765056494486
 30
8.33333333333318
 10
-5.6973232181605
 20
-2.937077194314243
 30
11.111111111111228
 10
-3.7922550376517936
 20
-5.167771881916972
 30
13.888888888889063
 10
-1.1055406150747271
 20
-6.107034212150636
 30
16.666666666666238
 10
1.5198091466430657
 20
-5.671628422094047
 30
19.444444444444773
 10
3.4645788541241043
 20
-4.2138274666714075
 30
22.222222222222122
 10
5.445486387759591
 20
-0.32607753072404555
 30
27.777777777777935
 10
5.481765181950242
 20
2.10414811514817
 30
30.555555555554594
 10
4.290873993506962
 20
4.484025790717965
 30
33.33333333333562
 10
1.9517836914618392
 20
6.105538871861115
 30
36.1111111111076
 10
-0.9726572011883793
 20
6.335601965607578
 30
38.88888888889268
 10
-3.536568379899866
 20
5.100113621393293
 30
41.66666666666392
 10
-5.085120576245845
 20
2.9357670447765556
 30
44.44444444444564
 10
-5.429453081032339
 20
0.5297984758596538
 30
47.22222222222205
 10
-4.081112081919236
 20
-3.619968419609076
 30
52.77777777777776
 10
-2.3883483915435173
 20
-5.364044311594961
 30
55.55555555555601
 10
0.13662765056480627
 20
-6.2048213303845285
 30
58.333333333331936
 10
2.9370771943147402
 20
-5.697323218158344
 30
61.11111111111348
 10
5.167771881916327
 20
-3.792255037653357
 30
63.88888888888653
 10
6.107034212150901
 20
-1.1055406150743095
 30
66.6666666666682
 10
5.671628422094094
 20
1.5198091466430586
 30
69.44444444444379
 10
4.213827466671328
 20
3.4645788541241527
 30
72.22222222222236
 10
0.32607753072406803
 20
5.4454863877595425
 30
77.77777777777764
 10
-2.1041481151488153
 20
5.48176518194967
 30
80.55555555555581
 10
-4.484025790715467
 20
4.290873993509985
 30
83.33333333333279
 10
-6.105538871866599
 20
1.9517836914553532
 30
86.11111111111238
 10
-6.335601965600252
 20
-0.9726572011811293
 30
88.88888888888744
 10
-5.10011362139979
 20
-3.536568379904614
 30
91.66666666666752
 10
-2.9357670447727044
 20
-5.085120576244168
 30
94.44444444444416
 10
-0.5297984758609
 20
-5.429453081032172
 30
97.22222222222234
 10
1.5450849718736075
 20
-4.755282581476137
 30
100.0
  0
SPLINE
  5
3A
330
17
100
AcDbEntity
  8
0
100
AcDbSpline
 70
0
 71
1
 72
4
 73
2
 74
0
 40
0.0
 40
0.0
 40
6.640655130520274
 40
6.640655130520274
 10
-3.090169943751733
 20
-9.510565162950801
 30
99.99999999999999
 10
1.5450849718736075
 20
-4.755282581476137
 30
100.0
  0
SPLINE
  5
3B
330
17
100
AcDbEntity
  8
0
100
AcDbSpline
 70
0
 71
9
 72
44
 73
34
 74
0
 40
0.0
 40
0.0
 40
0.0
 40
0.0
 40
0.0
 40
0.0
 40
0.0
 40
0.0
 40
0.0
 40
0.0
 40
25.0
 40
25.0
 40
25.0
 40
25.0
 40
25.0
 40
25.0
 40
25.0
 40
25.0
 40
50.0
 40
50.0
 40
50.0
 40
50.0
 40
50.0
 40
50.0
 40
50.0
 40
50.0
 40
75.0
 40
75.0
 40
75.0
 40
75.0
 40
75.0
 40
75.0
 40
75.0
 40
75.0
 40
100.0
 40
100.0
 40
100.0
 40
100.0
 40
100.0
 40
100.0
 40
100.0
 40
100.0
 40
100.0
 40
100.0
 10
-1.5450849718747395
 20
4.75528258147577
 30
0.0
 10
-3.6199684196085107
 20
4.081112081919474
 30
2.7777777777777777
 10
-5.364044311596258
 20
2.3883483915433135
 30
5.555555555555612
 10
-6.204821330382572
 20
-0.13662765056494486
 30
8.33333333333318
 10
-5.6973232181605
 20
-2.937077194314243
 30
11.111111111111228
 10
-3.7922550376517936
 20
-5.167771881916972
 30
13.888888888889063
 10
-1.1055406150747271
 20
-6.107034212150636
 30
16.666666666666238
 10
1.5198091466430657
 20
-5.671628422094047
 30
19.444444444444773
 10
3.4645788541241043
 20
-4.2138274666714075
 30
22.222222222222122
 10
5.445486387759591
 20
-0.32607753072404555
 30
27.777777777777935
 10
5.481765181950242
 20
2.10414811514817
 30
30.555555555554594
 10
4.290873993506962
 20
4.484025790717965
 30
33.33333333333562
 10
1.9517836914618392
 20
6.105538871861115
 30
36.1111111111076
 10
-0.9726572011883793
 20
6.335601965607578
 30
38.88888888889268
 10
-3.536568379899866
 20
5.100113621393293
 30
41.66666666666392
 10
-5.085120576245845
 20
2.9357670447765556
 30
44.44444444444564
 10
-5.429453081032339
 20
0.5297984758596538
 30
47.22222222222205
 10
-4.081112081919236
 20
-3.619968419609076
 30
52.77777777777776
 10
-2.3883483915435173
 20
-5.364044311594961
 30
55.55555555555601
 10
0.13662765056480627
 20
-6.2048213303845285
 30
58.333333333331936
 10
2.9370771943147402
 20
-5.697323218158344
 30
61.11111111111348
 10
5.167771881916327
 20
-3.792255037653357
 30
63.88888888888653
 10
6.107034212150901
 20
-1.1055406150743095
 30
66.6666666666682
 10
5.671628422094094
 20
1.5198091466430586
 30
69.44444444444379
 10
4.213827466671328
 20
3.4645788541241527
 30
72.22222222222236
 10
0.32607753072406803
 20
5.4454863877595425
 30
77.77777777777764
 10
-2.1041481151488153
 20
5.48176518194967
 30
80.55555555555581
 10
-4.484025790715467
 20
4.290873993509985
 30
83.33333333333279
 10
-6.105538871866599
 20
1.9517836914553532
 30
86.11111111111238
 10
-6.335601965600252
 20
-0.9726572011811293
 30
88.88888888888744
 10
-5.10011362139979
 20
-3.536568379904614
 30
91.66666666666752
 10
-2.9357670447727044
 20
-5.085120576244168
 30
94.44444444444416
 10
-0.5297984758609
 20
-5.429453081032172
 30
97.22222222222234
 10
1.5450849718736075
 20
-4.755282581476137
 30
100.0
  0
SPLINE
  5
3C
330
17
100
AcDbEntity
  8
0
100
AcDbSpline
 70
0
 71
1
 72
4
 73
2
 74
0
 40
0.0
 40
0.0
 40
6.640655130520275
 40
6.640655130520275
 10
-1.5450849718747373
 20
4.755282581475769
 30
0.0
 10
-8.090169943749475
 20
5.877852522924735
 30
1.7763568394002505e-15
  0
SPLINE
  5
3D
330
17
100
AcDbEntity
  8
0
100
AcDbSpline
 70
0
 71
9
 72
44
 73
34
 74
0
 40
0.0
 40
0.0
 40
0.0
 40
0.0
 40
0.0
 40
0.0
 40
0.0
 40
0.0
 40
0.0
 40
0.0
 40
25.0
 40
25.0
 40
25.0
 40
25.0
 40
25.0
 40
25.0
 40
25.0
 40
25.0
 40
50.0
 40
50.0
 40
50.0
 40
50.0
 40
50.0
 40
50.0
 40
50.0
 40
50.0
 40
75.0
 40
75.0
 40
75.0
 40
75.0
 40
75.0
 40
75.0
 40
75.0
 40
75.0
 40
100.0
 40
100.0
 40
100.0
 40
100.0
 40
100.0
 40
100.0
 40
100.0
 40
100.0
 40
100.0
 40
100.0
 10
-8.090169943749475
 20
5.877852522924735
 30
1.7763568394002505e-15
 10
-10.654866930537588
 20
2.347849958822881
 30
2.777777777777845
 10
-11.486877937094583
 20
-2.441383403506269
 30
5.555555555555367
 10
-9.878996370564211
 20
-7.515273124633873
 30
8.333333333333638
 10
-5.765721292553088
 20
-11.44989585833974
 30
11.111111111110691
 10
-0.060917346123156885
 20
-12.819693719174271
 30
13.888888888889445
 10
5.390446999160786
 20
-11.181029864420935
 30
16.666666666666117
 10
9.126501941660996
 20
-7.390244753116077
 30
19.444444444444745
 10
10.559457623905734
 20
-2.745259352085156
 30
22.222222222222157
 10
9.194309187997023
 20
5.873948652889776
 30
27.777777777777867
 10
6.396107921294913
 20
9.848784628635629
 30
30.555555555554815
 10
1.6714915015712783
 20
12.299531041469237
 30
33.33333333333516
 10
-4.019439060884116
 20
12.173428753318822
 30
36.111111111108244
 10
-9.021739210483496
 20
9.107792202753096
 30
38.88888888889187
 10
-11.717830985558235
 20
4.094671711043598
 30
41.66666666666458
 10
-11.679099075428958
 20
-1.2277469001927523
 30
44.444444444445246
 10
-9.407855087027844
 20
-5.52547295696059
 30
47.22222222222221
 10
-2.3478499588217616
 20
-10.654866930538235
 30
52.77777777777749
 10
2.4413834035041955
 20
-11.486877937092745
 30
55.55555555555696
 10
7.515273124636352
 20
-9.878996370567535
 30
58.33333333333002
 10
11.449895858337571
 20
-5.765721292548911
 30
61.111111111115804
 10
12.81969371917532
 20
-0.060917346126653754
 30
63.888888888884686
 10
11.181029864420873
 20
5.3904469991619735
 30
66.66666666666912
 10
7.390244753116077
 20
9.12650194166093
 30
69.44444444444343
 10
2.745259352085024
 20
10.559457623905741
 30
72.22222222222246
 10
-5.873948652889772
 20
9.194309187996977
 30
77.77777777777753
 10
-9.848784628635519
 20
6.396107921293181
 30
80.5555555555563
 10
-12.299531041469804
 20
1.671491501579235
 30
83.33333333333182
 10
-12.173428753318579
 20
-4.019439060901225
 30
86.11111111111377
 10
-9.107792202751197
 20
-9.021739210463013
 30
88.88888888888623
 10
-4.0946717110475666
 20
-11.717830985573599
 30
91.66666666666816
 10
1.2277469001966104
 20
-11.679099075421728
 30
94.44444444444395
 10
5.525472956958442
 20
-9.407855087029036
 30
97.22222222222244
 10
8.090169943748075
 20
-5.877852522926656
 30
100.00000000000001
  0
SPLINE
  5
3E
330
17
100
AcDbEntity
  8
0
100
AcDbSpline
 70
0
 71
1
 72
4
 73
2
 74
0
 40
0.0
 40
0.0
 40
6.640655130520275
 40
6.640655130520275
 10
1.5450849718736084
 20
-4.755282581476135
 30
100.0
 10
8.090169943748075
 20
-5.877852522926656
 30
100.00000000000001
  0
SPLINE
  5
3F
330
17
100
AcDbEntity
  8
0
100
AcDbSpline
 70
0
 71
9
 72
44
 73
34
 74
0
 40
0.0
 40
0.0
 40
0.0
 40
0.0
 40
0.0
 40
0.0
 40
0.0
 40
0.0
 40
0.0
 40
0.0
 40
25.0
 40
25.0
 40
25.0
 40
25.0
 40
25.0
 40
25.0
 40
25.0
 40
25.0
 40
50.0
 40
50.0
 40
50.0
 40
50.0
 40
50.0
 40
50.0
 40
50.0
 40
50.0
 40
75.0
 40
75.0
 40
75.0
 40
75.0
 40
75.0
 40
75.0
 40
75.0
 40
75.0
 40
100.0
 40
100.0
 40
100.0
 40
100.0
 40
100.0
 40
100.0
 40
100.0
 40
100.0
 40
100.0
 40
100.0
 10
-8.090169943749475
 20
5.877852522924735
 30
1.7763568394002505e-15
 10
-10.654866930537588
 20
2.347849958822881
 30
2.777777777777845
 10
-11.486877937094583
 20
-2.441383403506269
 30
5.555555555555367
 10
-9.878996370564211
 20
-7.515273124633873
 30
8.333333333333638
 10
-5.765721292553088
 20
-11.44989585833974
 30
11.111111111110691
 10
-0.060917346123156885
 20
-12.819693719174271
 30
13.888888888889445
 10
5.390446999160786
 20
-11.181029864420935
 30
16.666666666666117
 10
9.126501941660996
 20
-7.390244753116077
 30
19.444444444444745
 10
10.559457623905734
 20
-2.745259352085156
 30
22.222222222222157
 10
9.194309187997023
 20
5.873948652889776
 30
27.777777777777867
 10
6.396107921294913
 20
9.848784628635629
 30
30.555555555554815
 10
1.6714915015712783
 20
12.299531041469237
 30
33.33333333333516
 10
-4.019439060884116
 20
12.173428753318822
 30
36.111111111108244
 10
-9.021739210483496
 20
9.107792202753096
 30
38.88888888889187
 10
-11.717830985558235
 20
4.094671711043598
 30
41.66666666666458
 10
-11.679099075428958
 20
-1.2277469001927523
 30
44.444444444445246
 10
-9.407855087027844
 20
-5.52547295696059
 30
47.22222222222221
 10
-2.3478499588217616
 20
-10.654866930538235
 30
52.77777777777749
 10
2.4413834035041955
 20
-11.486877937092745
 30
55.55555555555696
 10
7.515273124636352
 20
-9.878996370567535
 30
58.33333333333002
 10
11.449895858337571
 20
-5.765721292548911
 30
61.111111111115804
 10
12.81969371917532
 20
-0.060917346126653754
 30
63.888888888884686
 10
11.181029864420873
 20
5.3904469991619735
 30
66.66666666666912
 10
7.390244753116077
 20
9.12650194166093
 30
69.44444444444343
 10
2.745259352085024
 20
10.559457623905741
 30
72.22222222222246
 10
-5.873948652889772
 20
9.194309187996977
 30
77.77777777777753
 10
-9.848784628635519
 20
6.396107921293181
 30
80.5555555555563
 10
-12.299531041469804
 20
1.671491501579235
 30
83.33333333333182
 10
-12.173428753318579
 20
-4.019439060901225
 30
86.11111111111377
 10
-9.107792202751197
 20
-9.021739210463013
 30
88.88888888888623
 10
-4.0946717110475666
 20
-11.717830985573599
 30
91.66666666666816
 10
1.2277469001966104
 20
-11.679099075421728
 30
94.44444444444395
 10
5.525472956958442
 20
-9.407855087029036
 30
97.22222222222244
 10
8.090169943748075
 20
-5.877852522926656
 30
100.00000000000001
  0
SPLINE
  5
40
330
17
100
AcDbEntity
  8
0
100
AcDbSpline
 70
0
 71
1
 72
4
 73
2
 74
0
 40
0.0
 40
0.0
 40
6.640655130520275
 40
6.640655130520275
 10
-8.090169943749475
 20
5.877852522924735
 30
1.7763568394002505e-15
 10
-5.000000000000002
 20
8.881784197001252e-16
 30
0.0
  0
SPLINE
  5
41
330
17
100
AcDbEntity
  8
0
100
AcDbSpline
 70
0
 71
9
 72
44
 73
34
 74
0
 40
0.0
 40
0.0
 40
0.0
 40
0.0
 40
0.0
 40
0.0
 40
0.0
 40
0.0
 40
0.0
 40
0.0
 40
25.0
 40
25.0
 40
25.0
 40
25.0
 40
25.0
 40
25.0
 40
25.0
 40
25.0
 40
50.0
 40
50.0
 40
50.0
 40
50.0
 40
50.0
 40
50.0
 40
50.0
 40
50.0
 40
75.0
 40
75.0
 40
75.0
 40
75.0
 40
75.0
 40
75.0
 40
75.0
 40
75.0
 40
100.0
 40
100.0
 40
100.0
 40
100.0
 40
100.0
 40
100.0
 40
100.0
 40
100.0
 40
100.0
 40
100.0
 10
-5.000000000000002
 20
8.881784197001252e-16
 30
0.0
 10
-5.000000000000033
 20
-2.1816615649893523
 30
2.7777777777778025
 10
-3.9290351518238604
 20
-4.363469054764443
 30
5.555555555555493
 10
-1.7874546207723878
 20
-5.943356024633908
 30
8.33333333333343
 10
1.0327567076556485
 20
-6.326083138905021
 30
11.111111111111
 10
3.742971869385916
 20
-5.203578199577566
 30
13.888888888889019
 10
5.466503844673199
 20
-2.938608962779282
 30
16.66666666666651
 10
5.863686023356678
 20
-0.3072051757672883
 30
19.444444444444574
 10
5.078201814997728
 20
1.99286599686776
 30
22.22222222222217
 10
1.9928659968677371
 20
5.078201814997736
 30
27.77777777777786
 10
-0.30720517576648876
 20
5.863686023356562
 30
30.555555555554978
 10
-2.938608962782376
 20
5.466503844673434
 30
33.33333333333457
 10
-5.203578199571742
 20
3.742971869385568
 30
36.1111111111093
 10
-6.326083138911437
 20
1.0327567076561976
 30
38.888888888890975
 10
-5.943356024630165
 20
-1.7874546207732809
 30
41.666666666664895
 10
-4.363469054764898
 20
-3.9290351518234092
 30
44.44444444444537
 10
-2.1816615649899918
 20
-4.999999999999995
 30
47.22222222222212
 10
2.1816615649899123
 20
-5.000000000000013
 30
52.77777777777754
 10
4.363469054763351
 20
-3.9290351518235505
 30
55.55555555555693
 10
5.943356024635333
 20
-1.7874546207733701
 30
58.33333333333028
 10
6.326083138903614
 20
1.0327567076571984
 30
61.11111111111564
 10
5.203578199578426
 20
3.742971869384353
 30
63.88888888888424
 10
2.9386089627792558
 20
5.466503844673925
 30
66.66666666666991
 10
0.30720517576717
 20
5.863686023356567
 30
69.44444444444296
 10
-1.9928659968677913
 20
5.078201814997708
 30
72.2222222222226
 10
-5.078201814997733
 20
1.9928659968677027
 30
77.7777777777774
 10
-5.863686023356021
 20
-0.3072051757671113
 30
80.5555555555562
 10
-5.466503844675905
 20
-2.938608962779385
 30
83.33333333333331
 10
-3.7429718693806255
 20
-5.203578199578579
 30
86.11111111110989
 10
-1.032756707661257
 20
-6.326083138902499
 30
88.88888888889089
 10
1.787454620776078
 20
-5.943356024637709
 30
91.6666666666649
 10
3.9290351518228714
 20
-4.36346905476071
 30
94.44444444444541
 10
4.999999999999478
 20
-2.1816615649911446
 30
97.22222222222196
 10
5.0
 20
-1.1866063687193673e-12
 30
100.0
  0
SPLINE
  5
42
330
17
100
AcDbEntity
  8
0
100
AcDbSpline
 70
0
 71
1
 72
4
 73
2
 74
0
 40
0.0
 40
0.0
 40
6.640655130520275
 40
6.640655130520275
 10
8.090169943748075
 20
-5.877852522926656
 30
100.00000000000001
 10
5.0
 20
-1.1866063687193673e-12
 30
100.0
  0
SPLINE
  5
43
330
17
100
AcDbEntity
  8
0
100
AcDbSpline
 70
0
 71
9
 72
44
 73
34
 74
0
 40
0.0
 40
0.0
 40
0.0
 40
0.0
 40
0.0
 40
0.0
 40
0.0
 40
0.0
 40
0.0
 40
0.0
 40
25.0
 40
25.0
 40
25.0
 40
25.0
 40
25.0
 40
25.0
 40
25.0
 40
25.0
 40
50.0
 40
50.0
 40
50.0
 40
50.0
 40
50.0
 40
50.0
 40
50.0
 40
50.0
 40
75.0
 40
75.0
 40
75.0
 40
75.0
 40
75.0
 40
75.0
 40
75.0
 40
75.0
 40
100.0
 40
100.0
 40
100.0
 40
100.0
 40
100.0
 40
100.0
 40
100.0
 40
100.0
 40
100.0
 40
100.0
 10
-5.000000000000002
 20
8.881784197001252e-16
 30
0.0
 10
-5.000000000000033
 20
-2.1816615649893523
 30
2.7777777777778025
 10
-3.9290351518238604
 20
-4.363469054764443
 30
5.555555555555493
 10
-1.7874546207723878
 20
-5.943356024633908
 30
8.33333333333343
 10
1.0327567076556485
 20
-6.326083138905021
 30
11.111111111111
 10
3.742971869385916
 20
-5.203578199577566
 30
13.888888888889019
 10
5.466503844673199
 20
-2.938608962779282
 30
16.66666666666651
 10
5.863686023356678
 20
-0.3072051757672883
 30
19.444444444444574
 10
5.078201814997728
 20
1.99286599686776
 30
22.22222222222217
 10
1.9928659968677371
 20
5.078201814997736
 30
27.77777777777786
 10
-0.30720517576648876
 20
5.863686023356562
 30
30.555555555554978
 10
-2.938608962782376
 20
5.466503844673434
 30
33.33333333333457
 10
-5.203578199571742
 20
3.742971869385568
 30
36.1111111111093
 10
-6.326083138911437
 20
1.0327567076561976
 30
38.888888888890975
 10
-5.943356024630165
 20
-1.7874546207732809
 30
41.666666666664895
 10
-4.363469054764898
 20
-3.9290351518234092
 30
44.44444444444537
 10
-2.1816615649899918
 20
-4.999999999999995
 30
47.22222222222212
 10
2.1816615649899123
 20
-5.000000000000013
 30
52.77777777777754
 10
4.363469054763351
 20
-3.9290351518235505
 30
55.55555555555693
 10
5.943356024635333
 20
-1.7874546207733701
 30
58.33333333333028
 10
6.326083138903614
 20
1.0327567076571984
 30
61.11111111111564
 10
5.203578199578426
 20
3.742971869384353
 30
63.88888888888424
 10
2.9386089627792558
 20
5.466503844673925
 30
66.66666666666991
 10
0.30720517576717
 20
5.863686023356567
 30
69.44444444444296
 10
-1.9928659968677913
 20
5.078201814997708
 30
72.2222222222226
 10
-5.078201814997733
 20
1.9928659968677027
 30
77.7777777777774
 10
-5.863686023356021
 20
-0.3072051757671113
 30
80.5555555555562
 10
-5.466503844675905
 20
-2.938608962779385
 30
83.33333333333331
 10
-3.7429718693806255
 20
-5.203578199578579
 30
86.11111111110989
 10
-1.032756707661257
 20
-6.326083138902499
 30
88.88888888889089
 10
1.787454620776078
 20
-5.943356024637709
 30
91.6666666666649
 10
3.9290351518228714
 20
-4.36346905476071
 30
94.44444444444541
 10
4.999999999999478
 20
-2.1816615649911446
 30
97.22222222222196
 10
5.0
 20
-1.1866063687193673e-12
 30
100.0
  0
SPLINE
  5
44
330
17
100
AcDbEntity
  8
0
100
AcDbSpline
 70
0
 71
1
 72
4
 73
2
 74
0
 40
0.0
 40
0.0
 40
6.640655130520275
 40
6.640655130520275
 10
-5.0
 20
0.0
 30
0.0
 10
-8.090169943749475
 20
-5.877852522924725
 30
-3.552713678800501e-15
  0
SPLINE
  5
45
330
17
100
AcDbEntity
  8
0
100
AcDbSpline
 70
0
 71
9
 72
44
 73
34
 74
0
 40
0.0
 40
0.0
 40
0.0
 40
0.0
 40
0.0
 40
0.0
 40
0.0
 40
0.0
 40
0.0
 40
0.0
 40
25.0
 40
25.0
 40
25.0
 40
25.0
 40
25.0
 40
25.0
 40
25.0
 40
25.0
 40
50.0
 40
50.0
 40
50.0
 40
50.0
 40
50.0
 40
50.0
 40
50.0
 40
50.0
 40
75.0
 40
75.0
 40
75.0
 40
75.0
 40
75.0
 40
75.0
 40
75.0
 40
75.0
 40
100.0
 40
100.0
 40
100.0
 40
100.0
 40
100.0
 40
100.0
 40
100.0
 40
100.0
 40
100.0
 40
100.0
 10
-8.090169943749475
 20
-5.877852522924725
 30
-3.552713678800501e-15
 10
-5.525472956961347
 20
-9.407855087026778
 30
2.777777777777984
 10
-1.2277469001941668
 20
-11.67909907542899
 30
5.555555555554759
 10
4.094671711049762
 20
-11.717830985562893
 30
8.333333333335048
 10
9.107792202744152
 20
-9.021739210473962
 30
11.11111111110869
 10
12.173428753326846
 20
-4.019439060893196
 30
13.888888888891158
 10
12.299531041464716
 20
1.671491501576216
 30
16.66666666666523
 10
9.848784628637045
 20
6.396107921293608
 30
19.444444444445043
 10
5.873948652889632
 20
9.194309187997094
 30
22.222222222222097
 10
-2.745259352085085
 20
10.5594576239057
 30
27.77777777777785
 10
-7.390244753115187
 20
9.126501941661877
 30
30.55555555555543
 10
-11.181029864424923
 20
5.390446999157231
 30
33.333333333333194
 10
-12.81969371916647
 20
-0.06091734611649899
 30
36.11111111111168
 10
-11.449895858348563
 20
-5.765721292560029
 30
38.88888888888839
 10
-7.515273124628408
 20
-9.878996370561122
 30
41.666666666666735
 10
-2.4413834035067237
 20
-11.486877937094413
 30
44.444444444444635
 10
2.3478499588215973
 20
-10.654866930538283
 30
47.22222222222219
 10
9.407855087027704
 20
-5.525472956960737
 30
52.777777777777665
 10
11.67909907542681
 20
-1.2277469001946726
 30
55.55555555555616
 10
11.717830985566383
 20
4.094671711049276
 30
58.33333333333213
 10
9.021739210470008
 20
9.107792202745852
 30
61.11111111111325
 10
4.019439060896026
 20
12.173428753324407
 30
63.88888888888608
 10
-1.6714915015766607
 20
12.299531041466548
 30
66.66666666666923
 10
-6.396107921293957
 20
9.848784628636379
 30
69.44444444444294
 10
-9.194309187997044
 20
5.873948652889627
 30
72.22222222222292
 10
-10.559457623905683
 20
-2.7452593520851454
 30
77.77777777777675
 10
-9.126501941660106
 20
-7.390244753115659
 30
80.55555555555911
 10
-5.3904469991651265
 20
-11.18102986442281
 30
83.33333333332705
 10
0.06091734613304216
 20
-12.819693719171791
 30
86.11111111111907
 10
5.765721292540941
 20
-11.449895858340243
 30
88.88888888888037
 10
9.878996370574677
 20
-7.515273124637016
 30
91.66666666667363
 10
11.486877937088623
 20
-2.4413834035007866
 30
94.44444444444072
 10
10.654866930538766
 20
2.347849958819172
 30
97.22222222222315
 10
8.090169943750867
 20
5.87785252292281
 30
99.99999999999999
  0
SPLINE
  5
46
330
17
100
AcDbEntity
  8
0
100
AcDbSpline
 70
0
 71
1
 72
4
 73
2
 74
0
 40
0.0
 40
0.0
 40
6.640655130520275
 40
6.640655130520275
 10
5.0
 20
-1.1883827255587676e-12
 30
100.0
 10
8.090169943750867
 20
5.87785252292281
 30
99.99999999999999
  0
SPLINE
  5
47
330
17
100
AcDbEntity
  8
0
100
AcDbSpline
 70
0
 71
9
 72
44
 73
34
 74
0
 40
0.0
 40
0.0
 40
0.0
 40
0.0
 40
0.0
 40
0.0
 40
0.0
 40
0.0
 40
0.0
 40
0.0
 40
25.0
 40
25.0
 40
25.0
 40
25.0
 40
25.0
 40
25.0
 40
25.0
 40
25.0
 40
50.0
 40
50.0
 40
50.0
 40
50.0
 40
50.0
 40
50.0
 40
50.0
 40
50.0
 40
75.0
 40
75.0
 40
75.0
 40
75.0
 40
75.0
 40
75.0
 40
75.0
 40
75.0
 40
100.0
 40
100.0
 40
100.0
 40
100.0
 40
100.0
 40
100.0
 40
100.0
 40
100.0
 40
100.0
 40
100.0
 10
-8.090169943749475
 20
-5.877852522924725
 30
-3.552713678800501e-15
 10
-5.525472956961347
 20
-9.407855087026778
 30
2.777777777777984
 10
-1.2277469001941668
 20
-11.67909907542899
 30
5.555555555554759
 10
4.094671711049762
 20
-11.717830985562893
 30
8.333333333335048
 10
9.107792202744152
 20
-9.021739210473962
 30
11.11111111110869
 10
12.173428753326846
 20
-4.019439060893196
 30
13.888888888891158
 10
12.299531041464716
 20
1.671491501576216
 30
16.66666666666523
 10
9.848784628637045
 20
6.396107921293608
 30
19.444444444445043
 10
5.873948652889632
 20
9.194309187997094
 30
22.222222222222097
 10
-2.745259352085085
 20
10.5594576239057
 30
27.77777777777785
 10
-7.390244753115187
 20
9.126501941661877
 30
30.55555555555543
 10
-11.181029864424923
 20
5.390446999157231
 30
33.333333333333194
 10
-12.81969371916647
 20
-0.06091734611649899
 30
36.11111111111168
 10
-11.449895858348563
 20
-5.765721292560029
 30
38.88888888888839
 10
-7.515273124628408
 20
-9.878996370561122
 30
41.666666666666735
 10
-2.4413834035067237
 20
-11.486877937094413
 30
44.444444444444635
 10
2.3478499588215973
 20
-10.654866930538283
 30
47.22222222222219
 10
9.407855087027704
 20
-5.525472956960737
 30
52.777777777777665
 10
11.67909907542681
 20
-1.2277469001946726
 30
55.55555555555616
 10
11.717830985566383
 20
4.094671711049276
 30
58.33333333333213
 10
9.021739210470008
 20
9.107792202745852
 30
61.11111111111325
 10
4.019439060896026
 20
12.173428753324407
 30
63.88888888888608
 10
-1.6714915015766607
 20
12.299531041466548
 30
66.66666666666923
 10
-6.396107921293957
 20
9.848784628636379
 30
69.44444444444294
 10
-9.194309187997044
 20
5.873948652889627
 30
72.22222222222292
 10
-10.559457623905683
 20
-2.7452593520851454
 30
77.77777777777675
 10
-9.126501941660106
 20
-7.390244753115659
 30
80.55555555555911
 10
-5.3904469991651265
 20
-11.18102986442281
 30
83.33333333332705
 10
0.06091734613304216
 20
-12.819693719171791
 30
86.11111111111907
 10
5.765721292540941
 20
-11.449895858340243
 30
88.88888888888037
 10
9.878996370574677
 20
-7.515273124637016
 30
91.66666666667363
 10
11.486877937088623
 20
-2.4413834035007866
 30
94.44444444444072
 10
10.654866930538766
 20
2.347849958819172
 30
97.22222222222315
 10
8.090169943750867
 20
5.87785252292281
 30
99.99999999999999
  0
SPLINE
  5
48
330
17
100
AcDbEntity
  8
0
100
AcDbSpline
 70
0
 71
1
 72
4
 73
2
 74
0
 40
0.0
 40
0.0
 40
6.640655130520274
 40
6.640655130520274
 10
-8.090169943749475
 20
-5.877852522924725
 30
-3.552713678800501e-15
 10
-1.5450849718747355
 20
-4.755282581475767
 30
1.7763568394002505e-15
  0
SPLINE
  5
49
330
17
100
AcDbEntity
  8
0
100
AcDbSpline
 70
0
 71
9
 72
44
 73
34
 74
0
 40
0.0
 40
0.0
 40
0.0
 40
0.0
 40
0.0
 40
0.0
 40
0.0
 40
0.0
 40
0.0
 40
0.0
 40
25.0
 40
25.0
 40
25.0
 40
25.0
 40
25.0
 40
25.0
 40
25.0
 40
25.0
 40
50.0
 40
50.0
 40
50.0
 40
50.0
 40
50.0
 40
50.0
 40
50.0
 40
50.0
 40
75.0
 40
75.0
 40
75.0
 40
75.0
 40
75.0
 40
75.0
 40
75.0
 40
75.0
 40
100.0
 40
100.0
 40
100.0
 40
100.0
 40
100.0
 40
100.0
 40
100.0
 40
100.0
 40
100.0
 40
100.0
 10
-1.5450849718747355
 20
-4.755282581475767
 30
1.7763568394002505e-15
 10
0.529798475858975
 20
-5.429453081032156
 30
2.7777777777778767
 10
2.9357670447761617
 20
-5.085120576246245
 30
5.555555555555211
 10
5.100113621396819
 20
-3.5365683798999403
 30
8.33333333333407
 10
6.335601965601676
 20
-0.9726572011872087
 30
11.111111111110091
 10
6.1055388718664485
 20
1.9517836914606284
 30
13.888888888889792
 10
4.48402579071513
 20
4.290873993507525
 30
16.666666666666146
 10
2.104148115148898
 20
5.4817651819501965
 30
19.444444444444656
 10
-0.32607753072406337
 20
5.445486387759559
 30
22.22222222222219
 10
-4.213827466671411
 20
3.4645788541241203
 30
27.777777777777768
 10
-5.67162842209379
 20
1.5198091466436094
 30
30.555555555555582
 10
-6.107034212151563
 20
-1.1055406150771818
 30
33.333333333332966
 10
-5.167771881915178
 20
-3.792255037647027
 30
36.11111111111189
 10
-2.9370771943164162
 20
-5.69732321816565
 30
38.88888888888816
 10
-0.13662765056317003
 20
-6.204821330379913
 30
41.666666666667
 10
2.3883483915428676
 20
-5.364044311596212
 30
44.44444444444435
 10
4.0811120819191995
 20
-3.6199684196091932
 30
47.22222222222234
 10
5.429453081032313
 20
0.5297984758596315
 30
52.777777777777416
 10
5.0851205762455605
 20
2.9357670447748037
 30
55.5555555555571
 10
3.5365683799014245
 20
5.100113621398709
 30
58.33333333333036
 10
0.9726572011851674
 20
6.3356019655997
 30
61.111111111115086
 10
-1.9517836914587712
 20
6.105538871867812
 30
63.888888888884956
 10
-4.290873993508298
 20
4.484025790714654
 30
66.66666666666949
 10
-5.481765181950075
 20
2.104148115149054
 30
69.44444444444301
 10
-5.445486387759566
 20
-0.3260775307241695
 30
72.22222222222285
 10
-3.4645788541240643
 20
-4.213827466671364
 30
77.77777777777675
 10
-1.5198091466429564
 20
-5.671628422093603
 30
80.55555555555951
 10
1.1055406150738565
 20
-6.1070342121527466
 30
83.33333333332611
 10
3.792255037654529
 20
-5.167771881912897
 30
86.11111111112022
 10
5.697323218156288
 20
-2.937077194318205
 30
88.88888888887983
 10
6.204821330387335
 20
-0.13662765056298776
 30
91.66666666667334
 10
5.3640443115924175
 20
2.3883483915437034
 30
94.44444444444126
 10
3.6199684196100295
 20
4.081112081918341
 30
97.22222222222298
 10
1.545084971875864
 20
4.7552825814754005
 30
100.0
  0
SPLINE
  5
4A
330
17
100
AcDbEntity
  8
0
100
AcDbSpline
 70
0
 71
1
 72
4
 73
2
 74
0
 40
0.0
 40
0.0
 40
6.640655130520274
 40
6.640655130520274
 10
8.090169943750867
 20
5.87785252292281
 30
99.99999999999999
 10
1.545084971875864
 20
4.7552825814754005
 30
100.0
  0
SPLINE
  5
4B
330
17
100
AcDbEntity
  8
0
100
AcDbSpline
 70
0
 71
9
 72
44
 73
34
 74
0
 40
0.0
 40
0.0
 40
0.0
 40
0.0
 40
0.0
 40
0.0
 40
0.0
 40
0.0
 40
0.0
 40
0.0
 40
25.0
 40
25.0
 40
25.0
 40
25.0
 40
25.0
 40
25.0
 40
25.0
 40
25.0
 40
50.0
 40
50.0
 40
50.0
 40
50.0
 40
50.0
 40
50.0
 40
50.0
 40
50.0
 40
75.0
 40
75.0
 40
75.0
 40
75.0
 40
75.0
 40
75.0
 40
75.0
 40
75.0
 40
100.0
 40
100.0
 40
100.0
 40
100.0
 40
100.0
 40
100.0
 40
100.0
 40
100.0
 40
100.0
 40
100.0
 10
-1.5450849718747355
 20
-4.755282581475767
 30
1.7763568394002505e-15
 10
0.529798475858975
 20
-5.429453081032156
 30
2.7777777777778767
 10
2.9357670447761617
 20
-5.085120576246245
 30
5.555555555555211
 10
5.100113621396819
 20
-3.5365683798999403
 30
8.33333333333407
 10
6.335601965601676
 20
-0.9726572011872087
 30
11.111111111110091
 10
6.1055388718664485
 20
1.9517836914606284
 30
13.888888888889792
 10
4.48402579071513
 20
4.290873993507525
 30
16.666666666666146
 10
2.104148115148898
 20
5.4817651819501965
 30
19.444444444444656
 10
-0.32607753072406337
 20
5.445486387759559
 30
22.22222222222219
 10
-4.213827466671411
 20
3.4645788541241203
 30
27.777777777777768
 10
-5.67162842209379
 20
1.5198091466436094
 30
30.555555555555582
 10
-6.107034212151563
 20
-1.1055406150771818
 30
33.333333333332966
 10
-5.167771881915178
 20
-3.792255037647027
 30
36.11111111111189
 10
-2.9370771943164162
 20
-5.69732321816565
 30
38.88888888888816
 10
-0.13662765056317003
 20
-6.204821330379913
 30
41.666666666667
 10
2.3883483915428676
 20
-5.364044311596212
 30
44.44444444444435
 10
4.0811120819191995
 20
-3.6199684196091932
 30
47.22222222222234
 10
5.429453081032313
 20
0.5297984758596315
 30
52.777777777777416
 10
5.0851205762455605
 20
2.9357670447748037
 30
55.5555555555571
 10
3.5365683799014245
 20
5.100113621398709
 30
58.33333333333036
 10
0.9726572011851674
 20
6.3356019655997
 30
61.111111111115086
 10
-1.9517836914587712
 20
6.105538871867812
 30
63.888888888884956
 10
-4.290873993508298
 20
4.484025790714654
 30
66.66666666666949
 10
-5.481765181950075
 20
2.104148115149054
 30
69.44444444444301
 10
-5.445486387759566
 20
-0.3260775307241695
 30
72.22222222222285
 10
-3.4645788541240643
 20
-4.213827466671364
 30
77.77777777777675
 10
-1.5198091466429564
 20
-5.671628422093603
 30
80.55555555555951
 10
1.1055406150738565
 20
-6.1070342121527466
 30
83.33333333332611
 10
3.792255037654529
 20
-5.167771881912897
 30
86.11111111112022
 10
5.697323218156288
 20
-2.937077194318205
 30
88.88888888887983
 10
6.204821330387335
 20
-0.13662765056298776
 30
91.66666666667334
 10
5.3640443115924175
 20
2.3883483915437034
 30
94.44444444444126
 10
3.6199684196100295
 20
4.081112081918341
 30
97.22222222222298
 10
1.545084971875864
 20
4.7552825814754005
 30
100.0
  0
SPLINE
  5
4C
330
17
100
AcDbEntity
  8
0
100
AcDbSpline
 70
0
 71
1
 72
4
 73
2
 74
0
 40
0.0
 40
0.0
 40
6.640655130520275
 40
6.640655130520275
 10
-1.545084971874739
 20
-4.755282581475769
 30
1.7763568394002505e-15
 10
3.0901699437494745
 20
-9.51056516295154
 30
-1.7763568394002505e-15
  0
SPLINE
  5
4D
330
17
100
AcDbEntity
  8
0
100
AcDbSpline
 70
0
 71
9
 72
44
 73
34
 74
0
 40
0.0
 40
0.0
 40
0.0
 40
0.0
 40
0.0
 40
0.0
 40
0.0
 40
0.0
 40
0.0
 40
0.0
 40
25.0
 40
25.0
 40
25.0
 40
25.0
 40
25.0
 40
25.0
 40
25.0
 40
25.0
 40
50.0
 40
50.0
 40
50.0
 40
50.0
 40
50.0
 40
50.0
 40
50.0
 40
50.0
 40
75.0
 40
75.0
 40
75.0
 40
75.0
 40
75.0
 40
75.0
 40
75.0
 40
75.0
 40
100.0
 40
100.0
 40
100.0
 40
100.0
 40
100.0
 40
100.0
 40
100.0
 40
100.0
 40
100.0
 40
100.0
 10
3.0901699437494745
 20
-9.51056516295154
 30
-1.7763568394002505e-15
 10
7.239936839217087
 20
-8.162224163838868
 30
2.7777777777779042
 10
10.728088623192296
 20
-4.776696783086921
 30
5.555555555555008
 10
12.409642660765472
 20
0.27325530113052837
 30
8.333333333334606
 10
11.394646436320711
 20
5.874154388627537
 30
11.111111111109205
 10
7.5845100753037435
 20
10.335543763834936
 30
13.888888888890747
 10
2.2110812301493956
 20
12.214068424300516
 30
16.666666666665428
 10
-3.0396182932861042
 20
11.343256844188462
 30
19.444444444445068
 10
-6.929157708248216
 20
8.427654933342714
 30
22.222222222221998
 10
-10.890972775519163
 20
0.6521550614481806
 30
27.77777777777806
 10
-10.963530363900611
 20
-4.20829623029667
 30
30.555555555554395
 10
-8.58174798701364
 20
-8.968051581435251
 30
33.33333333333533
 10
-3.903567382924098
 20
-12.211077743723179
 30
36.1111111111089
 10
1.9453144023772178
 20
-12.671203931214192
 30
38.88888888889096
 10
7.073136759799356
 20
-10.20022724278727
 30
41.66666666666499
 10
10.170241152491895
 20
-5.871534089552808
 30
44.44444444444539
 10
10.858906162064615
 20
-1.0595969517193617
 30
47.222222222222065
 10
8.162224163838532
 20
7.239936839218148
 30
52.77777777777765
 10
4.77669678308676
 20
10.728088623190056
 30
55.55555555555623
 10
-0.27325530112899815
 20
12.409642660768652
 30
58.333333333332575
 10
-5.8741543886303615
 20
11.394646436317297
 30
61.1111111111117
 10
-10.335543763831785
 20
7.584510075306121
 30
63.88888888888839
 10
-12.21406842430238
 20
2.211081230149002
 30
66.66666666666704
 10
-11.343256844187934
 20
-3.0396182932862805
 30
69.44444444444429
 10
-8.427654933342716
 20
-6.929157708248269
 30
72.22222222222244
 10
-0.6521550614480822
 20
-10.8909727755191
 30
77.77777777777735
 10
4.208296230297412
 20
-10.963530363899306
 30
80.55555555555678
 10
8.968051581431359
 20
-8.581747987019996
 30
83.33333333333259
 10
12.21107774373266
 20
-3.9035673829107527
 30
86.11111111111087
 10
12.671203931200964
 20
1.9453144023624265
 30
88.8888888888884
 10
10.200227242799288
 20
7.073136759808996
 30
91.66666666666836
 10
5.871534089545526
 20
10.1702411524885
 30
94.44444444444323
 10
1.059596951721778
 20
10.858906162064278
 30
97.22222222222244
 10
-3.090169943747215
 20
9.510565162952267
 30
100.00000000000001
  0
SPLINE
  5
4E
330
17
100
AcDbEntity
  8
0
100
AcDbSpline
 70
0
 71
1
 72
4
 73
2
 74
0
 40
0.0
 40
0.0
 40
6.640655130520275
 40
6.640655130520275
 10
1.5450849718758675
 20
4.755282581475402
 30
100.0
 10
-3.090169943747215
 20
9.510565162952267
 30
100.00000000000001
  0
SPLINE
  5
4F
330
17
100
AcDbEntity
  8
0
100
AcDbSpline
 70
0
 71
9
 72
44
 73
34
 74
0
 40
0.0
 40
0.0
 40
0.0
 40
0.0
 40
0.0
 40
0.0
 40
0.0
 40
0.0
 40
0.0
 40
0.0
 40
25.0
 40
25.0
 40
25.0
 40
25.0
 40
25.0
 40
25.0
 40
25.0
 40
25.0
 40
50.0
 40
50.0
 40
50.0
 40
50.0
 40
50.0
 40
50.0
 40
50.0
 40
50.0
 40
75.0
 40
75.0
 40
75.0
 40
75.0
 40
75.0
 40
75.0
 40
75.0
 40
75.0
 40
100.0
 40
100.0
 40
100.0
 40
100.0
 40
100.0
 40
100.0
 40
100.0
 40
100.0
 40
100.0
 40
100.0
 10
3.0901699437494745
 20
-9.51056516295154
 30
-1.7763568394002505e-15
 10
7.239936839217087
 20
-8.162224163838868
 30
2.7777777777779042
 10
10.728088623192296
 20
-4.776696783086921
 30
5.555555555555008
 10
12.409642660765472
 20
0.27325530113052837
 30
8.333333333334606
 10
11.394646436320711
 20
5.874154388627537
 30
11.111111111109205
 10
7.5845100753037435
 20
10.335543763834936
 30
13.888888888890747
 10
2.2110812301493956
 20
12.214068424300516
 30
16.666666666665428
 10
-3.0396182932861042
 20
11.343256844188462
 30
19.444444444445068
 10
-6.929157708248216
 20
8.427654933342714
 30
22.222222222221998
 10
-10.890972775519163
 20
0.6521550614481806
 30
27.77777777777806
 10
-10.963530363900611
 20
-4.20829623029667
 30
30.555555555554395
 10
-8.58174798701364
 20
-8.968051581435251
 30
33.33333333333533
 10
-3.903567382924098
 20
-12.211077743723179
 30
36.1111111111089
 10
1.9453144023772178
 20
-12.671203931214192
 30
38.88888888889096
 10
7.073136759799356
 20
-10.20022724278727
 30
41.66666666666499
 10
10.170241152491895
 20
-5.871534089552808
 30
44.44444444444539
 10
10.858906162064615
 20
-1.0595969517193617
 30
47.222222222222065
 10
8.162224163838532
 20
7.239936839218148
 30
52.77777777777765
 10
4.77669678308676
 20
10.728088623190056
 30
55.55555555555623
 10
-0.27325530112899815
 20
12.409642660768652
 30
58.333333333332575
 10
-5.8741543886303615
 20
11.394646436317297
 30
61.1111111111117
 10
-10.335543763831785
 20
7.584510075306121
 30
63.88888888888839
 10
-12.21406842430238
 20
2.211081230149002
 30
66.66666666666704
 10
-11.343256844187934
 20
-3.0396182932862805
 30
69.44444444444429
 10
-8.427654933342716
 20
-6.929157708248269
 30
72.22222222222244
 10
-0.6521550614480822
 20
-10.8909727755191
 30
77.77777777777735
 10
4.208296230297412
 20
-10.963530363899306
 30
80.55555555555678
 10
8.968051581431359
 20
-8.581747987019996
 30
83.33333333333259
 10
12.21107774373266
 20
-3.9035673829107527
 30
86.11111111111087
 10
12.671203931200964
 20
1.9453144023624265
 30
88.8888888888884
 10
10.200227242799288
 20
7.073136759808996
 30
91.66666666666836
 10
5.871534089545526
 20
10.1702411524885
 30
94.44444444444323
 10
1.059596951721778
 20
10.858906162064278
 30
97.22222222222244
 10
-3.090169943747215
 20
9.510565162952267
 30
100.00000000000001
  0
SPLINE
  5
50
330
17
100
AcDbEntity
  8
0
100
AcDbSpline
 70
0
 71
1
 72
4
 73
2
 74
0
 40
0.0
 40
0.0
 40
6.640655130520275
 40
6.640655130520275
 10
3.0901699437494683
 20
-9.51056516295154
 30
-1.7763568394002505e-15
 10
4.045084971874733
 20
-2.9389262614623632
 30
-3.552713678800501e-15
  0
SPLINE
  5
51
330
17
100
AcDbEntity
  8
0
100
AcDbSpline
 70
0
 71
9
 72
44
 73
34
 74
0
 40
0.0
 40
0.0
 40
0.0
 40
0.0
 40
0.0
 40
0.0
 40
0.0
 40
0.0
 40
0.0
 40
0.0
 40
25.0
 40
25.0
 40
25.0
 40
25.0
 40
25.0
 40
25.0
 40
25.0
 40
25.0
 40
50.0
 40
50.0
 40
50.0
 40
50.0
 40
50.0
 40
50.0
 40
50.0
 40
50.0
 40
75.0
 40
75.0
 40
75.0
 40
75.0
 40
75.0
 40
75.0
 40
75.0
 40
75.0
 40
100.0
 40
100.0
 40
100.0
 40
100.0
 40
100.0
 40
100.0
 40
100.0
 40
100.0
 40
100.0
 40
100.0
 10
4.045084971874733
 20
-2.9389262614623632
 30
-3.552713678800501e-15
 10
5.327433465268796
 20
-1.1739249794114155
 30
2.777777777777877
 10
5.7434389685473
 20
1.2206917017530519
 30
5.555555555555228
 10
4.939498185282059
 20
3.757636562317107
 30
8.333333333333968
 10
2.882860646276608
 20
5.72494792916963
 30
11.11111111111028
 10
0.0304586730615194
 20
6.409846859587375
 30
13.888888888889621
 10
-2.69522349958036
 20
5.590514932210311
 30
16.666666666666195
 10
-4.563250970830509
 20
3.6951223765580976
 30
19.444444444444656
 10
-5.279728811952866
 20
1.372629676042572
 30
22.22222222222219
 10
-4.597154593998508
 20
-2.9369743264448918
 30
27.777777777777768
 10
-3.1980539606474516
 20
-4.924392314317787
 30
30.555555555555603
 10
-0.8357457507856718
 20
-6.1497655207346815
 30
33.33333333333292
 10
2.0097195304421396
 20
-6.086714376659326
 30
36.11111111111198
 10
4.510869605241648
 20
-4.553896101376623
 30
38.888888888888026
 10
5.858915492779185
 20
-2.047335855521748
 30
41.666666666667126
 10
5.839549537714448
 20
0.6138734500963605
 30
44.44444444444428
 10
4.703927543513932
 20
2.7627364784802944
 30
47.22222222222238
 10
1.17392497941086
 20
5.327433465269134
 30
52.777777777777345
 10
-1.2206917017520273
 20
5.743438968546293
 30
55.55555555555743
 10
-3.7576365623183205
 20
4.939498185283905
 30
58.333333333329676
 10
-5.724947929168588
 20
2.8828606462743047
 30
61.11111111111612
 10
-6.4098468595878595
 20
0.030458673063425572
 30
63.88888888888388
 10
-5.590514932210295
 20
-2.6952234995810134
 30
66.66666666667032
 10
-3.695122376558095
 20
-4.563250970830484
 30
69.44444444444268
 10
-1.3726296760425067
 20
-5.279728811952859
 30
72.22222222222273
 10
2.9369743264448953
 20
-4.597154593998501
 30
77.77777777777732
 10
4.924392314317704
 20
-3.198053960646533
 30
80.55555555555642
 10
6.1497655207350155
 20
-0.8357457507897521
 30
83.33333333333289
 10
6.086714376659133
 20
2.0097195304508415
 30
86.11111111111077
 10
4.553896101375738
 20
4.510869605231239
 30
88.88888888888931
 10
2.047335855523699
 20
5.858915492787014
 30
91.6666666666665
 10
-0.6138734500982751
 20
5.839549537710751
 30
94.44444444444456
 10
-2.762736478479227
 20
4.703927543514548
 30
97.22222222222209
 10
-4.045084971874038
 20
2.9389262614633247
 30
100.0
  0
SPLINE
  5
52
330
17
100
AcDbEntity
  8
0
100
AcDbSpline
 70
0
 71
1
 72
4
 73
2
 74
0
 40
0.0
 40
0.0
 40
6.640655130520275
 40
6.640655130520275
 10
-3.090169943747215
 20
9.510565162952268
 30
100.00000000000001
 10
-4.045084971874038
 20
2.9389262614633247
 30
100.0
  0
SPLINE
  5
53
330
17
100
AcDbEntity
  8
0
100
AcDbSpline
 70
0
 71
9
 72
44
 73
34
 74
0
 40
0.0
 40
0.0
 40
0.0
 40
0.0
 40
0.0
 40
0.0
 40
0.0
 40
0.0
 40
0.0
 40
0.0
 40
25.0
 40
25.0
 40
25.0
 40
25.0
 40
25.0
 40
25.0
 40
25.0
 40
25.0
 40
50.0
 40
50.0
 40
50.0
 40
50.0
 40
50.0
 40
50.0
 40
50.0
 40
50.0
 40
75.0
 40
75.0
 40
75.0
 40
75.0
 40
75.0
 40
75.0
 40
75.0
 40
75.0
 40
100.0
 40
100.0
 40
100.0
 40
100.0
 40
100.0
 40
100.0
 40
100.0
 40
100.0
 40
100.0
 40
100.0
 10
4.045084971874733
 20
-2.9389262614623632
 30
-3.552713678800501e-15
 10
5.327433465268796
 20
-1.1739249794114155
 30
2.777777777777877
 10
5.7434389685473
 20
1.2206917017530519
 30
5.555555555555228
 10
4.939498185282059
 20
3.757636562317107
 30
8.333333333333968
 10
2.882860646276608
 20
5.72494792916963
 30
11.11111111111028
 10
0.0304586730615194
 20
6.409846859587375
 30
13.888888888889621
 10
-2.69522349958036
 20
5.590514932210311
 30
16.666666666666195
 10
-4.563250970830509
 20
3.6951223765580976
 30
19.444444444444656
 10
-5.279728811952866
 20
1.372629676042572
 30
22.22222222222219
 10
-4.597154593998508
 20
-2.9369743264448918
 30
27.777777777777768
 10
-3.1980539606474516
 20
-4.924392314317787
 30
30.555555555555603
 10
-0.8357457507856718
 20
-6.1497655207346815
 30
33.33333333333292
 10
2.0097195304421396
 20
-6.086714376659326
 30
36.11111111111198
 10
4.510869605241648
 20
-4.553896101376623
 30
38.888888888888026
 10
5.858915492779185
 20
-2.047335855521748
 30
41.666666666667126
 10
5.839549537714448
 20
0.6138734500963605
 30
44.44444444444428
 10
4.703927543513932
 20
2.7627364784802944
 30
47.22222222222238
 10
1.17392497941086
 20
5.327433465269134
 30
52.777777777777345
 10
-1.2206917017520273
 20
5.743438968546293
 30
55.55555555555743
 10
-3.7576365623183205
 20
4.939498185283905
 30
58.333333333329676
 10
-5.724947929168588
 20
2.8828606462743047
 30
61.11111111111612
 10
-6.4098468595878595
 20
0.030458673063425572
 30
63.88888888888388
 10
-5.590514932210295
 20
-2.6952234995810134
 30
66.66666666667032
 10
-3.695122376558095
 20
-4.563250970830484
 30
69.44444444444268
 10
-1.3726296760425067
 20
-5.279728811952859
 30
72.22222222222273
 10
2.9369743264448953
 20
-4.597154593998501
 30
77.77777777777732
 10
4.924392314317704
 20
-3.198053960646533
 30
80.55555555555642
 10
6.1497655207350155
 20
-0.8357457507897521
 30
83.33333333333289
 10
6.086714376659133
 20
2.0097195304508415
 30
86.11111111111077
 10
4.553896101375738
 20
4.510869605231239
 30
88.88888888888931
 10
2.047335855523699
 20
5.858915492787014
 30
91.6666666666665
 10
-0.6138734500982751
 20
5.839549537710751
 30
94.44444444444456
 10
-2.762736478479227
 20
4.703927543514548
 30
97.22222222222209
 10
-4.045084971874038
 20
2.9389262614633247
 30
100.0
  0
SPLINE
  5
54
330
17
100
AcDbEntity
  8
0
100
AcDbSpline
 70
0
 71
1
 72
4
 73
2
 74
0
 40
0.0
 40
0.0
 40
6.640655130520277
 40
6.640655130520277
 10
4.045084971874736
 20
-2.938926261462367
 30
-3.552713678800501e-15
 10
10.0
 20
-5.329070518200751e-15
 30
0.0
  0
SPLINE
  5
55
330
17
100
AcDbEntity
  8
0
100
AcDbSpline
 70
0
 71
9
 72
44
 73
34
 74
0
 40
0.0
 40
0.0
 40
0.0
 40
0.0
 40
0.0
 40
0.0
 40
0.0
 40
0.0
 40
0.0
 40
0.0
 40
25.0
 40
25.0
 40
25.0
 40
25.0
 40
25.0
 40
25.0
 40
25.0
 40
25.0
 40
50.0
 40
50.0
 40
50.0
 40
50.0
 40
50.0
 40
50.0
 40
50.0
 40
50.0
 40
75.0
 40
75.0
 40
75.0
 40
75.0
 40
75.0
 40
75.0
 40
75.0
 40
75.0
 40
100.0
 40
100.0
 40
100.0
 40
100.0
 40
100.0
 40
100.0
 40
100.0
 40
100.0
 40
100.0
 40
100.0
 10
10.000000000000004
 20
-1.7763568394002505e-15
 30
0.0
 10
10.000000000000059
 20
4.363323129978619
 30
2.7777777777778025
 10
7.858070303647792
 20
8.726938109529149
 30
5.555555555555493
 10
3.574909241544658
 20
11.886712049267386
 30
8.33333333333343
 10
-2.0655134153111776
 20
12.652166277810512
 30
11.111111111111
 10
-7.485943738771943
 20
10.407156399154786
 30
13.888888888889019
 10
-10.933007689346297
 20
5.877217925558734
 30
16.66666666666651
 10
-11.727372046713423
 20
0.6144103515345204
 30
19.444444444444574
 10
-10.156403629995445
 20
-3.985731993735519
 30
22.22222222222217
 10
-3.9857319937354694
 20
-10.156403629995486
 30
27.77777777777786
 10
0.614410351532921
 20
-11.72737204671311
 30
30.555555555554978
 10
5.877217925564972
 20
-10.93300768934686
 30
33.33333333333457
 10
10.40715639914306
 20
-7.485943738771148
 30
36.1111111111093
 10
12.652166277823406
 20
-2.065513415312363
 30
38.888888888890975
 10
11.88671204925988
 20
3.5749092415465262
 30
41.666666666664895
 10
8.726938109530021
 20
7.858070303646841
 30
44.44444444444537
 10
4.363323129979934
 20
9.999999999999995
 30
47.22222222222212
 10
-4.363323129979807
 20
10.000000000000027
 30
52.77777777777754
 10
-8.726938109526671
 20
7.858070303647079
 30
55.55555555555693
 10
-11.8867120492708
 20
3.5749092415467363
 30
58.33333333333028
 10
-12.652166277807021
 20
-2.0655134153143577
 30
61.11111111111564
 10
-10.407156399157017
 20
-7.4859437387688015
 30
63.88888888888424
 10
-5.87721792555843
 20
-10.933007689347733
 30
66.66666666666991
 10
-0.6144103515343468
 20
-11.727372046713228
 30
69.44444444444296
 10
3.9857319937355693
 20
-10.156403629995355
 30
72.2222222222226
 10
10.156403629995497
 20
-3.9857319937354974
 30
77.7777777777774
 10
11.72737204671191
 20
0.6144103515346379
 30
80.5555555555562
 10
10.933007689352074
 20
5.877217925557914
 30
83.33333333333331
 10
7.485943738760898
 20
10.407156399158303
 30
86.11111111110989
 10
2.065513415322861
 20
12.652166277803962
 30
88.88888888889089
 10
-3.5749092415524317
 20
11.886712049276067
 30
91.6666666666649
 10
-7.858070303645582
 20
8.72693810952115
 30
94.44444444444541
 10
-9.999999999999023
 20
4.363323129982351
 30
97.22222222222196
 10
-9.999999999999998
 20
2.369660023759934e-12
 30
100.0
  0
SPLINE
  5
56
330
17
100
AcDbEntity
  8
0
100
AcDbSpline
 70
0
 71
1
 72
4
 73
2
 74
0
 40
0.0
 40
0.0
 40
6.640655130520277
 40
6.640655130520277
 10
-4.045084971874038
 20
2.9389262614633274
 30
100.0
 10
-10.0
 20
2.374989094278135e-12
 30
100.0
  0
SPLINE
  5
57
330
17
100
AcDbEntity
  8
0
100
AcDbSpline
 70
0
 71
1
 72
4
 73
2
 74
0
 40
0.0
 40
0.0
 40
6.640655130520275
 40
6.640655130520275
 10
10.000000000000004
 20
-1.7763568394002505e-15
 30
0.0
 10
4.045084971874738
 20
2.9389262614623677
 30
5.329070518200751e-15
  0
SPLINE
  5
58
330
17
100
AcDbEntity
  8
0
100
AcDbSpline
 70
0
 71
1
 72
4
 73
2
 74
0
 40
0.0
 40
0.0
 40
6.640655130520277
 40
6.640655130520277
 10
4.045084971874736
 20
-2.938926261462367
 30
-3.552713678800501e-15
 10
10.0
 20
-5.329070518200751e-15
 30
0.0
  0
SPLINE
  5
59
330
17
100
AcDbEntity
  8
0
100
AcDbSpline
 70
0
 71
1
 72
4
 73
2
 74
0
 40
0.0
 40
0.0
 40
6.640655130520275
 40
6.640655130520275
 10
3.0901699437494683
 20
-9.51056516295154
 30
-1.7763568394002505e-15
 10
4.045084971874733
 20
-2.9389262614623632
 30
-3.552713678800501e-15
  0
SPLINE
  5
5A
330
17
100
AcDbEntity
  8
0
100
AcDbSpline
 70
0
 71
1
 72
4
 73
2
 74
0
 40
0.0
 40
0.0
 40
6.640655130520275
 40
6.640655130520275
 10
-1.545084971874739
 20
-4.755282581475769
 30
1.7763568394002505e-15
 10
3.0901699437494745
 20
-9.51056516295154
 30
-1.7763568394002505e-15
  0
SPLINE
  5
5B
330
17
100
AcDbEntity
  8
0
100
AcDbSpline
 70
0
 71
1
 72
4
 73
2
 74
0
 40
0.0
 40
0.0
 40
6.640655130520274
 40
6.640655130520274
 10
-8.090169943749475
 20
-5.877852522924725
 30
-3.552713678800501e-15
 10
-1.5450849718747355
 20
-4.755282581475767
 30
1.7763568394002505e-15
  0
SPLINE
  5
5C
330
17
100
AcDbEntity
  8
0
100
AcDbSpline
 70
0
 71
1
 72
4
 73
2
 74
0
 40
0.0
 40
0.0
 40
6.640655130520275
 40
6.640655130520275
 10
-5.0
 20
0.0
 30
0.0
 10
-8.090169943749475
 20
-5.877852522924725
 30
-3.552713678800501e-15
  0
SPLINE
  5
5D
330
17
100
AcDbEntity
  8
0
100
AcDbSpline
 70
0
 71
1
 72
4
 73
2
 74
0
 40
0.0
 40
0.0
 40
6.640655130520275
 40
6.640655130520275
 10
-8.090169943749475
 20
5.877852522924735
 30
1.7763568394002505e-15
 10
-5.000000000000002
 20
8.881784197001252e-16
 30
0.0
  0
SPLINE
  5
5E
330
17
100
AcDbEntity
  8
0
100
AcDbSpline
 70
0
 71
1
 72
4
 73
2
 74
0
 40
0.0
 40
0.0
 40
6.640655130520275
 40
6.640655130520275
 10
-1.5450849718747373
 20
4.755282581475769
 30
0.0
 10
-8.090169943749475
 20
5.877852522924735
 30
1.7763568394002505e-15
  0
SPLINE
  5
5F
330
17
100
AcDbEntity
  8
0
100
AcDbSpline
 70
0
 71
1
 72
4
 73
2
 74
0
 40
0.0
 40
0.0
 40
6.640655130520274
 40
6.640655130520274
 10
3.0901699437494745
 20
9.510565162951531
 30
1.7763568394002505e-15
 10
-1.5450849718747395
 20
4.75528258147577
 30
0.0
  0
SPLINE
  5
60
330
17
100
AcDbEntity
  8
0
100
AcDbSpline
 70
0
 71
1
 72
4
 73
2
 74
0
 40
0.0
 40
0.0
 40
6.640655130520274
 40
6.640655130520274
 10
4.045084971874738
 20
2.9389262614623677
 30
5.329070518200751e-15
 10
3.0901699437494745
 20
9.51056516295153
 30
1.7763568394002505e-15
  0
SPLINE
  5
61
330
17
100
AcDbEntity
  8
0
100
AcDbSpline
 70
0
 71
1
 72
4
 73
2
 74
0
 40
0.0
 40
0.0
 40
6.640655130520275
 40
6.640655130520275
 10
-9.999999999999998
 20
2.369660023759934e-12
 30
100.0
 10
-4.045084971875436
 20
-2.938926261461405
 30
100.0
  0
SPLINE
  5
62
330
17
100
AcDbEntity
  8
0
100
AcDbSpline
 70
0
 71
1
 72
4
 73
2
 74
0
 40
0.0
 40
0.0
 40
6.640655130520274
 40
6.640655130520274
 10
-4.045084971875436
 20
-2.938926261461405
 30
100.0
 10
-3.0901699437517314
 20
-9.510565162950801
 30
99.99999999999999
  0
SPLINE
  5
63
330
17
100
AcDbEntity
  8
0
100
AcDbSpline
 70
0
 71
1
 72
4
 73
2
 74
0
 40
0.0
 40
0.0
 40
6.640655130520274
 40
6.640655130520274
 10
-3.090169943751733
 20
-9.510565162950801
 30
99.99999999999999
 10
1.5450849718736075
 20
-4.755282581476137
 30
100.0
  0
SPLINE
  5
64
330
17
100
AcDbEntity
  8
0
100
AcDbSpline
 70
0
 71
1
 72
4
 73
2
 74
0
 40
0.0
 40
0.0
 40
6.640655130520275
 40
6.640655130520275
 10
1.5450849718736084
 20
-4.755282581476135
 30
100.0
 10
8.090169943748075
 20
-5.877852522926656
 30
100.00000000000001
  0
SPLINE
  5
65
330
17
100
AcDbEntity
  8
0
100
AcDbSpline
 70
0
 71
1
 72
4
 73
2
 74
0
 40
0.0
 40
0.0
 40
6.640655130520275
 40
6.640655130520275
 10
8.090169943748075
 20
-5.877852522926656
 30
100.00000000000001
 10
5.0
 20
-1.1866063687193673e-12
 30
100.0
  0
SPLINE
  5
66
330
17
100
AcDbEntity
  8
0
100
AcDbSpline
 70
0
 71
1
 72
4
 73
2
 74
0
 40
0.0
 40
0.0
 40
6.640655130520275
 40
6.640655130520275
 10
5.0
 20
-1.1883827255587676e-12
 30
100.0
 10
8.090169943750867
 20
5.87785252292281
 30
99.99999999999999
  0
SPLINE
  5
67
330
17
100
AcDbEntity
  8
0
100
AcDbSpline
 70
0
 71
1
 72
4
 73
2
 74
0
 40
0.0
 40
0.0
 40
6.640655130520274
 40
6.640655130520274
 10
8.090169943750867
 20
5.87785252292281
 30
99.99999999999999
 10
1.545084971875864
 20
4.7552825814754005
 30
100.0
  0
SPLINE
  5
68
330
17
100
AcDbEntity
  8
0
100
AcDbSpline
 70
0
 71
1
 72
4
 73
2
 74
0
 40
0.0
 40
0.0
 40
6.640655130520275
 40
6.640655130520275
 10
1.5450849718758675
 20
4.755282581475402
 30
100.0
 10
-3.090169943747215
 20
9.510565162952267
 30
100.00000000000001
  0
SPLINE
  5
69
330
17
100
AcDbEntity
  8
0
100
AcDbSpline
 70
0
 71
1
 72
4
 73
2
 74
0
 40
0.0
 40
0.0
 40
6.640655130520275
 40
6.640655130520275
 10
-3.090169943747215
 20
9.510565162952268
 30
100.00000000000001
 10
-4.045084971874038
 20
2.9389262614633247
 30
100.0
  0
SPLINE
  5
6A
330
17
100
AcDbEntity
  8
0
100
AcDbSpline
 70
0
 71
1
 72
4
 73
2
 74
0
 40
0.0
 40
0.0
 40
6.640655130520277
 40
6.640655130520277
 10
-4.045084971874038
 20
2.9389262614633274
 30
100.0
 10
-10.0
 20
2.374989094278135e-12
 30
100.0
  0
ENDSEC
  0
SECTION
  2
OBJECTS
  0
DICTIONARY
  5
A
330
0
100
AcDbDictionary
280
0
281
1
  3
ACAD_COLOR
350
B
  3
ACAD_GROUP
350
C
  3
ACAD_LAYOUT
350
D
  3
ACAD_MATERIAL
350
E
  3
ACAD_MLEADERSTYLE
350
F
  3
ACAD_MLINESTYLE
350
10
  3
ACAD_PLOTSETTINGS
350
11
  3
ACAD_PLOTSTYLENAME
350
12
  3
ACAD_SCALELIST
350
14
  3
ACAD_TABLESTYLE
350
15
  3
ACAD_VISUALSTYLE
350
16
  3
EZDXF_META
350
2D
  0
DICTIONARY
  5
B
330
A
100
AcDbDictionary
280
0
281
1
  0
DICTIONARY
  5
C
330
A
100
AcDbDictionary
280
0
281
1
  0
DICTIONARY
  5
D
330
A
100
AcDbDictionary
280
0
281
1
  3
Model
350
1A
  3
Layout1
350
1E
  0
DICTIONARY
  5
E
330
A
100
AcDbDictionary
280
0
281
1
  3
ByBlock
350
1F
  3
ByLayer
350
20
  3
Global
350
21
  0
DICTIONARY
  5
F
330
A
100
AcDbDictionary
280
0
281
1
  3
Standard
350
2C
  0
DICTIONARY
  5
10
330
A
100
AcDbDictionary
280
0
281
1
  3
Standard
350
22
  0
DICTIONARY
  5
11
330
A
100
AcDbDictionary
280
0
281
1
  0
ACDBDICTIONARYWDFLT
  5
12
330
A
100
AcDbDictionary
280
0
281
1
  3
Normal
350
13
100
AcDbDictionaryWithDefault
340
13
  0
ACDBPLACEHOLDER
  5
13
330
12
  0
DICTIONARY
  5
14
330
A
100
AcDbDictionary
280
0
281
1
  0
DICTIONARY
  5
15
330
A
100
AcDbDictionary
280
0
281
1
  0
DICTIONARY
  5
16
330
A
100
AcDbDictionary
280
0
281
1
  0
LAYOUT
  5
1A
330
D
100
AcDbPlotSettings
  1

  4
A3
  6

 40
7.5
 41
20.0
 42
7.5
 43
20.0
 44
420.0
 45
297.0
 46
0.0
 47
0.0
 48
0.0
 49
0.0
140
0.0
141
0.0
142
1.0
143
1.0
 70
1024
 72
1
 73
0
 74
5
  7

 75
16
 76
0
 77
2
 78
300
147
1.0
148
0.0
149
0.0
100
AcDbLayout
  1
Model
 70
1
 71
0
 10
0.0
 20
0.0
 11
420.0
 21
297.0
 12
0.0
 22
0.0
 32
0.0
 14
1e+20
 24
1e+20
 34
1e+20
 15
-1e+20
 25
-1e+20
 35
-1e+20
146
0.0
 13
0.0
 23
0.0
 33
0.0
 16
1.0
 26
0.0
 36
0.0
 17
0.0
 27
1.0
 37
0.0
 76
1
330
17
  0
LAYOUT
  5
1E
330
D
100
AcDbPlotSettings
  1

  4
A3
  6

 40
7.5
 41
20.0
 42
7.5
 43
20.0
 44
420.0
 45
297.0
 46
0.0
 47
0.0
 48
0.0
 49
0.0
140
0.0
141
0.0
142
1.0
143
1.0
 70
0
 72
1
 73
0
 74
5
  7

 75
16
 76
0
 77
2
 78
300
147
1.0
148
0.0
149
0.0
100
AcDbLayout
  1
Layout1
 70
1
 71
1
 10
0.0
 20
0.0
 11
420.0
 21
297.0
 12
0.0
 22
0.0
 32
0.0
 14
1e+20
 24
1e+20
 34
1e+20
 15
-1e+20
 25
-1e+20
 35
-1e+20
146
0.0
 13
0.0
 23
0.0
 33
0.0
 16
1.0
 26
0.0
 36
0.0
 17
0.0
 27
1.0
 37
0.0
 76
1
330
1B
  0
MATERIAL
  5
1F
102
{ACAD_REACTORS
330
E
102
}
330
E
100
AcDbMaterial
  1
ByBlock
  2

 70
0
 40
1.0
 71
1
 41
1.0
 91
-1023410177
 42
1.0
 72
1
  3

 73
1
 74
1
 75
1
 44
0.5
 73
0
 45
1.0
 46
1.0
 77
1
  4

 78
1
 79
1
170
1
 48
1.0
171
1
  6

172
1
173
1
174
1
140
1.0
141
1.0
175
1
  7

176
1
177
1
178
1
143
1.0
179
1
  8

270
1
271
1
272
1
145
1.0
146
1.0
273
1
  9

274
1
275
1
276
1
 42
1.0
 72
1
  3

 73
1
 74
1
 75
1
 94
63
  0
MATERIAL
  5
20
102
{ACAD_REACTORS
330
E
102
}
330
E
100
AcDbMaterial
  1
ByLayer
  2

 70
0
 40
1.0
 71
1
 41
1.0
 91
-1023410177
 42
1.0
 72
1
  3

 73
1
 74
1
 75
1
 44
0.5
 73
0
 45
1.0
 46
1.0
 77
1
  4

 78
1
 79
1
170
1
 48
1.0
171
1
  6

172
1
173
1
174
1
140
1.0
141
1.0
175
1
  7

176
1
177
1
178
1
143
1.0
179
1
  8

270
1
271
1
272
1
145
1.0
146
1.0
273
1
  9

274
1
275
1
276
1
 42
1.0
 72
1
  3

 73
1
 74
1
 75
1
 94
63
  0
MATERIAL
  5
21
102
{ACAD_REACTORS
330
E
102
}
330
E
100
AcDbMaterial
  1
Global
  2

 70
0
 40
1.0
 71
1
 41
1.0
 91
-1023410177
 42
1.0
 72
1
  3

 73
1
 74
1
 75
1
 44
0.5
 73
0
 45
1.0
 46
1.0
 77
1
  4

 78
1
 79
1
170
1
 48
1.0
171
1
  6

172
1
173
1
174
1
140
1.0
141
1.0
175
1
  7

176
1
177
1
178
1
143
1.0
179
1
  8

270
1
271
1
272
1
145
1.0
146
1.0
273
1
  9

274
1
275
1
276
1
 42
1.0
 72
1
  3

 73
1
 74
1
 75
1
 94
63
  0
MLINESTYLE
  5
22
102
{ACAD_REACTORS
330
10
102
}
330
10
100
AcDbMlineStyle
  2
Standard
 70
0
  3

 62
256
 51
90.0
 52
90.0
 71
2
 49
0.5
 62
256
  6
BYLAYER
 49
-0.5
 62
256
  6
BYLAYER
  0
MLEADERSTYLE
  5
2C
102
{ACAD_REACTORS
330
F
102
}
330
F
100
AcDbMLeaderStyle
179
2
170
2
171
1
172
0
 90
2
 40
0.0
 41
0.0
173
1
 91
-1056964608
 92
-2
290
1
 42
2.0
291
1
 43
8.0
  3
Standard
 44
4.0
300

342
29
174
1
175
1
176
0
178
1
 93
-1056964608
 45
4.0
292
0
297
0
 46
4.0
 94
-1056964608
 47
1.0
 49
1.0
140
1.0
294
1
141
0.0
177
0
142
1.0
295
0
296
0
143
3.75
271
0
272
9
273
9
  0
DICTIONARY
  5
2D
330
A
100
AcDbDictionary
281
1
  3
CREATED_BY_EZDXF
350
2E
  3
WRITTEN_BY_EZDXF
350
6E
  0
DICTIONARYVAR
  5
2E
330
2D
100
DictionaryVariables
280
0
  1
1.3.4 @ 2024-11-13T12:53:04.451500+00:00
  0
DICTIONARYVAR
  5
6E
330
2D
100
DictionaryVariables
280
0
  1
1.3.4 @ 2024-11-13T12:53:05.064411+00:00
  0
ENDSEC
  0
EOF
